<?xml version="1.0" encoding="UTF-8"?>
<svg width="850px" height="850px" viewBox="0 0 850 850" version="1.1" xmlns="http://www.w3.org/2000/svg" xmlns:xlink="http://www.w3.org/1999/xlink">
    <!-- Generator: Sketch 43.2 (39069) - http://www.bohemiancoding.com/sketch -->
    <title>rj_J</title>
    <desc>Created with Sketch.</desc>
    <defs></defs>
    <g id="Page-2" stroke="none" stroke-width="1" fill="none" fill-rule="evenodd">
        <g id="rj_J" fill="#FFFFFF">
            <path d="M379,640.5755 L379,240.947 L419.239,240.947 C426.866038,240.947 432.125986,242.393486 435.019,245.2865 C437.912014,248.179514 439.884495,253.176464 440.9365,260.2775 L445.6705,322.6085 C459.346568,294.730361 476.244149,272.967328 496.36375,257.31875 C516.483351,241.670172 540.087365,233.846 567.1765,233.846 C578.222555,233.846 588.216455,235.095238 597.1585,237.59375 C606.100545,240.092262 614.384962,243.576978 622.012,248.048 L612.9385,300.5165 C611.097491,307.091533 607.021032,310.379 600.709,310.379 C597.026982,310.379 591.372538,309.129762 583.7455,306.63125 C576.118462,304.132738 565.467068,302.8835 551.791,302.8835 C527.331878,302.8835 506.883832,309.984429 490.44625,324.1865 C474.008668,338.388571 460.267055,359.033865 449.221,386.123 L449.221,640.5755 L379,640.5755 Z M775.078,240.947 L775.078,670.163 C775.078,686.20608 772.974021,701.131181 768.766,714.93875 C764.557979,728.746319 757.917295,740.778449 748.84375,751.0355 C739.770205,761.292551 728.066822,769.37972 713.73325,775.29725 C699.399678,781.21478 682.2391,784.1735 662.251,784.1735 C653.571957,784.1735 645.682036,783.516007 638.581,782.201 C631.479964,780.885993 624.379036,778.913513 617.278,776.2835 L620.434,738.4115 C620.960003,734.992483 622.143491,732.822755 623.9845,731.90225 C625.825509,730.981745 628.71848,730.5215 632.6635,730.5215 C634.767511,730.5215 637.002988,730.587249 639.37,730.71875 C641.737012,730.850251 644.629983,730.916 648.049,730.916 C668.563103,730.916 683.159457,726.116298 691.8385,716.51675 C700.517543,706.917202 704.857,691.466107 704.857,670.163 L704.857,240.947 L775.078,240.947 Z M790.858,115.496 C790.858,122.334034 789.477264,128.71172 786.71575,134.62925 C783.954236,140.54678 780.272273,145.806727 775.66975,150.40925 C771.067227,155.011773 765.74153,158.627987 759.6925,161.258 C753.64347,163.888013 747.200034,165.203 740.362,165.203 C733.523966,165.203 727.14628,163.888013 721.22875,161.258 C715.31122,158.627987 710.051273,155.011773 705.44875,150.40925 C700.846227,145.806727 697.230013,140.54678 694.6,134.62925 C691.969987,128.71172 690.655,122.334034 690.655,115.496 C690.655,108.657966 691.969987,102.148781 694.6,95.96825 C697.230013,89.7877191 700.846227,84.396273 705.44875,79.79375 C710.051273,75.191227 715.31122,71.5750132 721.22875,68.945 C727.14628,66.3149869 733.523966,65 740.362,65 C747.200034,65 753.64347,66.3149869 759.6925,68.945 C765.74153,71.5750132 771.067227,75.191227 775.66975,79.79375 C780.272273,84.396273 783.954236,89.7877191 786.71575,95.96825 C789.477264,102.148781 790.858,108.657966 790.858,115.496 L790.858,115.496 Z" id="rj"></path>
        </g>
    </g>
</svg>