<?xml version="1.0" encoding="UTF-8"?>
<svg width="1522px" height="498px" viewBox="0 0 1522 498" version="1.1" xmlns="http://www.w3.org/2000/svg" xmlns:xlink="http://www.w3.org/1999/xlink">
    <!-- Generator: Sketch 43.2 (39069) - http://www.bohemiancoding.com/sketch -->
    <title>rjlewis_logo</title>
    <desc>Created with Sketch.</desc>
    <defs></defs>
    <g id="Page-2" stroke="none" stroke-width="1" fill="none" fill-rule="evenodd">
        <g id="rjlewis_logo" stroke="#145990" stroke-width="5">
            <g id="rj-+-lewis(lato)-copy" transform="translate(18.180000, 20.330000)" fill="#145990">
                <path d="M452.953191,50.9995411 L452.953191,361.487967 L407.003217,361.487967 L407.003217,50.9995411 L452.953191,50.9995411 Z M637.527526,144.58872 C653.188457,144.58872 667.644484,146.731694 680.896041,151.017707 C694.147598,155.303719 705.591953,161.486726 715.229449,169.566913 C724.866945,177.647101 732.396126,187.624226 737.817217,199.498588 C743.238309,211.37295 745.948814,224.898278 745.948814,240.074977 C745.948814,245.977027 745.174384,249.911668 743.6255,251.879018 C742.076617,253.846368 739.150993,254.830028 734.848539,254.830028 L560.858187,254.830028 C561.202383,268.320428 563.439625,280.054089 567.569981,290.031364 C571.700336,300.008638 577.37949,308.334619 584.607612,315.009557 C591.835734,321.684494 600.440512,326.673057 610.422204,329.975394 C620.403896,333.277731 631.590108,334.928875 643.981174,334.928875 C655.51175,334.928875 665.450268,333.839823 673.797028,331.661685 C682.143788,329.483548 689.328778,327.12979 695.352213,324.60034 C701.375648,322.07089 706.409443,319.717131 710.453749,317.538994 C714.498056,315.360857 717.982991,314.271804 720.908659,314.271804 C724.694818,314.271804 727.620443,315.466249 729.685621,317.855174 L742.592917,331.556292 C736.913678,337.177292 730.115903,342.060462 722.199389,346.20595 C714.282874,350.351437 705.807168,353.759117 696.772015,356.429092 C687.736863,359.099067 678.400679,361.101518 668.763183,362.436506 C659.125687,363.771493 649.574383,364.438977 640.108985,364.438977 C622.03868,364.438977 605.388435,361.944696 590.157749,356.956058 C574.927063,351.967421 561.761753,344.660231 550.661423,335.034268 C539.561093,325.408306 530.913291,313.498992 524.717757,299.305967 C518.522224,285.112942 515.424504,268.812287 515.424504,250.403513 C515.424504,235.507863 518.221057,221.596098 523.814247,208.667798 C529.407436,195.739498 537.452904,184.532798 547.950891,175.047361 C558.448877,165.561924 571.269997,158.114211 586.414633,152.703998 C601.55927,147.293786 618.59673,144.58872 637.527526,144.58872 L637.527526,144.58872 Z M638.56011,172.201744 C616.359449,172.201744 598.89175,177.436221 586.156487,187.905334 C573.421225,198.374446 565.504829,212.883434 562.407062,231.432733 L704.645466,231.432733 C704.645466,222.720184 703.182654,214.74551 700.256985,207.508472 C697.331317,200.271435 693.028928,194.018167 687.349689,188.748479 C681.67045,183.478792 674.743604,179.403628 666.568942,176.522866 C658.394281,173.642103 649.058096,172.201744 638.56011,172.201744 L638.56011,172.201744 Z M770.472676,147.961303 L806.613106,147.961303 C810.399265,147.961303 813.496985,148.734179 815.906359,150.279954 C818.315733,151.825729 819.950641,153.652527 820.811131,155.760402 L870.89144,293.19316 C872.268226,298.25206 873.558942,303.13523 874.763629,307.842818 C875.968316,312.550405 877.00089,317.293053 877.86138,322.070902 C879.238166,317.293053 880.787026,312.550405 882.508007,307.842818 C884.228988,303.13523 886.035992,298.25206 887.929071,293.19316 L943.172299,154.917256 C944.03279,152.809381 945.538626,151.052845 947.689853,149.647595 C949.841079,148.242345 952.551585,147.53973 955.821449,147.53973 L975.698685,147.53973 C979.140648,147.53973 981.980225,148.242345 984.217501,149.647595 C986.454777,151.052845 988.003637,152.809381 988.864127,154.917256 L1042.81663,293.19316 C1044.7097,298.111535 1046.38764,302.959575 1047.85047,307.737425 C1049.31331,312.515274 1050.73309,317.222791 1052.10988,321.860116 C1052.97037,317.222791 1054.08899,312.374752 1055.46578,307.315852 C1056.84256,302.256952 1058.30537,297.549435 1059.85426,293.19316 L1110.96715,155.760402 C1111.82764,153.512002 1113.46255,151.650073 1115.87192,150.174561 C1118.2813,148.699048 1121.12087,147.961303 1124.39074,147.961303 L1158.98229,147.961303 L1074.31043,361.487967 L1037.91185,361.487967 C1033.4373,361.487967 1030.33958,359.099078 1028.6186,354.321228 L970.793913,209.510944 C969.417128,206.278869 968.298506,203.011712 967.438016,199.709374 C966.577525,196.407037 965.717047,193.13988 964.856557,189.907805 C963.996066,193.13988 963.135588,196.442168 962.275097,199.814767 C961.414607,203.187367 960.295985,206.489655 958.9192,209.72173 L900.320076,354.321228 C898.426996,359.099078 894.899037,361.487967 889.736093,361.487967 L855.144539,361.487967 L770.472676,147.961303 Z M1251.14039,147.961303 L1251.14039,361.487967 L1205.19041,361.487967 L1205.19041,147.961303 L1251.14039,147.961303 Z M1261.46622,80.9312155 C1261.46622,84.5848654 1260.56272,87.9925454 1258.75569,91.1543578 C1256.94866,94.3161702 1254.53932,97.126628 1251.5276,99.5858154 C1248.51589,102.045003 1245.03095,103.977193 1241.07269,105.382442 C1237.11444,106.787692 1232.8981,107.490307 1228.42354,107.490307 C1223.94899,107.490307 1219.77568,106.787692 1215.90347,105.382442 C1212.03126,103.977193 1208.58935,102.045003 1205.57763,99.5858154 C1202.56591,97.126628 1200.1996,94.3161702 1198.47862,91.1543578 C1196.75764,87.9925454 1195.89716,84.5848654 1195.89716,80.9312155 C1195.89716,77.2775656 1196.75764,73.7996241 1198.47862,70.4972867 C1200.1996,67.1949493 1202.56591,64.3142301 1205.57763,61.8550427 C1208.58935,59.3958553 1212.03126,57.4636656 1215.90347,56.0584156 C1219.77568,54.6531657 1223.94899,53.9505512 1228.42354,53.9505512 C1232.8981,53.9505512 1237.11444,54.6531657 1241.07269,56.0584156 C1245.03095,57.4636656 1248.51589,59.3958553 1251.5276,61.8550427 C1254.53932,64.3142301 1256.94866,67.1949493 1258.75569,70.4972867 C1260.56272,73.7996241 1261.46622,77.2775656 1261.46622,80.9312155 L1261.46622,80.9312155 Z M1481.92284,183.162639 C1479.85766,186.254189 1476.6739,187.79994 1472.37144,187.79994 C1469.78997,187.79994 1466.86434,187.027065 1463.59448,185.48129 C1460.32462,183.935515 1456.32339,182.214109 1451.59069,180.317022 C1446.858,178.419934 1441.22187,176.663398 1434.68214,175.047361 C1428.14241,173.431323 1420.39811,172.623317 1411.449,172.623317 C1403.70459,172.623317 1396.73472,173.431323 1390.53918,175.047361 C1384.34365,176.663398 1379.05171,178.876634 1374.66321,181.687134 C1370.27471,184.497634 1366.91884,187.764791 1364.59552,191.488703 C1362.27219,195.212615 1361.11055,199.252648 1361.11055,203.608923 C1361.11055,209.089398 1363.04662,213.656392 1366.91883,217.310042 C1370.79104,220.963692 1375.91088,224.125457 1382.27851,226.795432 C1388.64615,229.465407 1395.87416,231.819165 1403.96277,233.856777 C1412.05138,235.89439 1420.355,238.072495 1428.87385,240.391157 C1437.39271,242.70982 1445.69632,245.274362 1453.78494,248.084862 C1461.87355,250.895362 1469.10156,254.408434 1475.46919,258.624184 C1481.83682,262.839934 1486.95667,268.00415 1490.82888,274.116987 C1494.70108,280.229825 1496.63716,287.572146 1496.63716,296.14417 C1496.63716,305.98092 1494.48596,315.079777 1490.18351,323.441014 C1485.88106,331.802252 1479.51352,339.03918 1471.08071,345.152018 C1462.6479,351.264855 1452.32217,356.077764 1440.1032,359.590889 C1427.88423,363.104014 1413.7724,364.86055 1397.76727,364.86055 C1379.52487,364.86055 1363.00369,362.43653 1348.20325,357.588418 C1333.40281,352.740305 1320.83984,346.522167 1310.51395,338.933818 L1321.35608,324.60034 C1322.73286,322.773515 1324.36777,321.368286 1326.26085,320.384611 C1328.15393,319.400936 1330.64931,318.909106 1333.74708,318.909106 C1336.84485,318.909106 1340.11466,319.892766 1343.55663,321.860116 C1346.99859,323.827466 1351.17191,326.005571 1356.0767,328.394496 C1360.9815,330.783421 1366.9188,332.961525 1373.88877,334.928875 C1380.85875,336.896225 1389.5926,337.879885 1400.09058,337.879885 C1409.03969,337.879885 1416.87003,336.931356 1423.58186,335.034268 C1430.29369,333.137181 1435.8868,330.572638 1440.36135,327.340563 C1444.8359,324.108489 1448.14874,320.384632 1450.29997,316.168882 C1452.45119,311.953132 1453.52679,307.4564 1453.52679,302.67855 C1453.52679,296.7765 1451.59071,291.89333 1447.71851,288.028892 C1443.8463,284.164455 1438.72645,280.862167 1432.35882,278.12193 C1425.99119,275.381692 1418.72015,272.992803 1410.54549,270.955191 C1402.37083,268.917578 1394.0242,266.774604 1385.50534,264.526204 C1376.98648,262.277804 1368.63985,259.713262 1360.46518,256.832499 C1352.29052,253.951737 1345.01948,250.333273 1338.65185,245.976998 C1332.28422,241.620723 1327.16438,236.245722 1323.29217,229.851835 C1319.41996,223.457948 1317.48389,215.694058 1317.48389,206.559934 C1317.48389,198.409484 1319.54903,190.575333 1323.67939,183.057245 C1327.80975,175.539158 1333.83309,168.934582 1341.7496,163.24332 C1349.66612,157.552058 1359.38952,153.020195 1370.92009,149.647595 C1382.45067,146.274995 1395.61598,144.58872 1410.41642,144.58872 C1427.62623,144.58872 1443.07181,146.801956 1456.75361,151.228493 C1470.43542,155.65503 1482.26699,161.732645 1492.24868,169.46152 L1481.92284,183.162639 Z" id="lewis"></path>
                <path d="M0.00322415056,376.420518 L0.00322415056,115.067547 L26.3341083,115.067547 C31.3249545,115.067547 34.7668657,116.013534 36.6599452,117.905536 C38.5530248,119.797538 39.8437415,123.065492 40.5321341,127.709497 L43.6298852,168.473337 C52.5789886,150.241317 63.6361284,136.008516 76.8016363,125.774505 C89.9671442,115.540494 105.412721,110.423565 123.13883,110.423565 C130.366952,110.423565 136.906583,111.240554 142.75792,112.874556 C148.609257,114.508557 154.030267,116.787526 159.021113,119.711529 L153.083757,154.025394 C151.87907,158.325398 149.211588,160.475368 145.081233,160.475368 C142.671859,160.475368 138.971804,159.65838 133.980958,158.024378 C128.990112,156.390376 122.020242,155.573388 113.071139,155.573388 C97.0660112,155.573388 83.6855814,160.217323 72.9294475,169.505333 C62.1733135,178.793343 53.1813205,192.295155 45.9531985,210.011173 L45.9531985,376.420518 L0.00322415056,376.420518 Z M259.181731,115.067547 L259.181731,395.770442 C259.181731,406.262453 257.804967,416.023317 255.051396,425.053327 C252.297826,434.083337 247.952413,441.952227 242.015027,448.660234 C236.077641,455.368241 228.419389,460.657167 219.04004,464.527172 C209.660691,468.397176 198.431456,470.332149 185.351997,470.332149 C179.672758,470.332149 174.509891,469.902155 169.863242,469.042154 C165.216592,468.182153 160.570012,466.892171 155.923362,465.172169 L157.988529,440.404267 C158.332725,438.168264 159.107155,436.749284 160.311842,436.147283 C161.516529,435.545283 163.409581,435.244287 165.991053,435.244287 C167.367838,435.244287 168.83065,435.287286 170.379533,435.373286 C171.928417,435.459286 173.821468,435.502286 176.058744,435.502286 C189.482399,435.502286 199.033703,432.36333 204.712941,426.085323 C210.39218,419.807316 213.231757,409.702457 213.231757,395.770442 L213.231757,115.067547 L259.181731,115.067547 Z M269.507568,33.02387 C269.507568,37.4958748 268.604066,41.6668166 266.797036,45.5368208 C264.990005,49.4068249 262.580667,52.8467769 259.56895,55.8567801 C256.557232,58.8667833 253.072297,61.2317504 249.11404,62.9517522 C245.155783,64.671754 240.939442,65.5317421 236.46489,65.5317421 C231.990338,65.5317421 227.817021,64.671754 223.944813,62.9517522 C220.072604,61.2317504 216.630693,58.8667833 213.618976,55.8567801 C210.607258,52.8467769 208.240944,49.4068249 206.519963,45.5368208 C204.798981,41.6668166 203.938503,37.4958748 203.938503,33.02387 C203.938503,28.5518653 204.798981,24.2949246 206.519963,20.2529203 C208.240944,16.210916 210.607258,12.6849651 213.618976,9.67496192 C216.630693,6.66495872 220.072604,4.29999167 223.944813,2.57998984 C227.817021,0.859988015 231.990338,0 236.46489,0 C240.939442,0 245.155783,0.859988015 249.11404,2.57998984 C253.072297,4.29999167 256.557232,6.66495872 259.56895,9.67496192 C262.580667,12.6849651 264.990005,16.210916 266.797036,20.2529203 C268.604066,24.2949246 269.507568,28.5518653 269.507568,33.02387 L269.507568,33.02387 Z" id="rj"></path>
            </g>
            <g id="rj-+-lewis(lato)" transform="translate(8.176776, 12.330461)" fill="#2187D8">
                <path d="M452.953191,50.9995411 L452.953191,361.487967 L407.003217,361.487967 L407.003217,50.9995411 L452.953191,50.9995411 Z M637.527526,144.58872 C653.188457,144.58872 667.644484,146.731694 680.896041,151.017707 C694.147598,155.303719 705.591953,161.486726 715.229449,169.566913 C724.866945,177.647101 732.396126,187.624226 737.817217,199.498588 C743.238309,211.37295 745.948814,224.898278 745.948814,240.074977 C745.948814,245.977027 745.174384,249.911668 743.6255,251.879018 C742.076617,253.846368 739.150993,254.830028 734.848539,254.830028 L560.858187,254.830028 C561.202383,268.320428 563.439625,280.054089 567.569981,290.031364 C571.700336,300.008638 577.37949,308.334619 584.607612,315.009557 C591.835734,321.684494 600.440512,326.673057 610.422204,329.975394 C620.403896,333.277731 631.590108,334.928875 643.981174,334.928875 C655.51175,334.928875 665.450268,333.839823 673.797028,331.661685 C682.143788,329.483548 689.328778,327.12979 695.352213,324.60034 C701.375648,322.07089 706.409443,319.717131 710.453749,317.538994 C714.498056,315.360857 717.982991,314.271804 720.908659,314.271804 C724.694818,314.271804 727.620443,315.466249 729.685621,317.855174 L742.592917,331.556292 C736.913678,337.177292 730.115903,342.060462 722.199389,346.20595 C714.282874,350.351437 705.807168,353.759117 696.772015,356.429092 C687.736863,359.099067 678.400679,361.101518 668.763183,362.436506 C659.125687,363.771493 649.574383,364.438977 640.108985,364.438977 C622.03868,364.438977 605.388435,361.944696 590.157749,356.956058 C574.927063,351.967421 561.761753,344.660231 550.661423,335.034268 C539.561093,325.408306 530.913291,313.498992 524.717757,299.305967 C518.522224,285.112942 515.424504,268.812287 515.424504,250.403513 C515.424504,235.507863 518.221057,221.596098 523.814247,208.667798 C529.407436,195.739498 537.452904,184.532798 547.950891,175.047361 C558.448877,165.561924 571.269997,158.114211 586.414633,152.703998 C601.55927,147.293786 618.59673,144.58872 637.527526,144.58872 L637.527526,144.58872 Z M638.56011,172.201744 C616.359449,172.201744 598.89175,177.436221 586.156487,187.905334 C573.421225,198.374446 565.504829,212.883434 562.407062,231.432733 L704.645466,231.432733 C704.645466,222.720184 703.182654,214.74551 700.256985,207.508472 C697.331317,200.271435 693.028928,194.018167 687.349689,188.748479 C681.67045,183.478792 674.743604,179.403628 666.568942,176.522866 C658.394281,173.642103 649.058096,172.201744 638.56011,172.201744 L638.56011,172.201744 Z M770.472676,147.961303 L806.613106,147.961303 C810.399265,147.961303 813.496985,148.734179 815.906359,150.279954 C818.315733,151.825729 819.950641,153.652527 820.811131,155.760402 L870.89144,293.19316 C872.268226,298.25206 873.558942,303.13523 874.763629,307.842818 C875.968316,312.550405 877.00089,317.293053 877.86138,322.070902 C879.238166,317.293053 880.787026,312.550405 882.508007,307.842818 C884.228988,303.13523 886.035992,298.25206 887.929071,293.19316 L943.172299,154.917256 C944.03279,152.809381 945.538626,151.052845 947.689853,149.647595 C949.841079,148.242345 952.551585,147.53973 955.821449,147.53973 L975.698685,147.53973 C979.140648,147.53973 981.980225,148.242345 984.217501,149.647595 C986.454777,151.052845 988.003637,152.809381 988.864127,154.917256 L1042.81663,293.19316 C1044.7097,298.111535 1046.38764,302.959575 1047.85047,307.737425 C1049.31331,312.515274 1050.73309,317.222791 1052.10988,321.860116 C1052.97037,317.222791 1054.08899,312.374752 1055.46578,307.315852 C1056.84256,302.256952 1058.30537,297.549435 1059.85426,293.19316 L1110.96715,155.760402 C1111.82764,153.512002 1113.46255,151.650073 1115.87192,150.174561 C1118.2813,148.699048 1121.12087,147.961303 1124.39074,147.961303 L1158.98229,147.961303 L1074.31043,361.487967 L1037.91185,361.487967 C1033.4373,361.487967 1030.33958,359.099078 1028.6186,354.321228 L970.793913,209.510944 C969.417128,206.278869 968.298506,203.011712 967.438016,199.709374 C966.577525,196.407037 965.717047,193.13988 964.856557,189.907805 C963.996066,193.13988 963.135588,196.442168 962.275097,199.814767 C961.414607,203.187367 960.295985,206.489655 958.9192,209.72173 L900.320076,354.321228 C898.426996,359.099078 894.899037,361.487967 889.736093,361.487967 L855.144539,361.487967 L770.472676,147.961303 Z M1251.14039,147.961303 L1251.14039,361.487967 L1205.19041,361.487967 L1205.19041,147.961303 L1251.14039,147.961303 Z M1261.46622,80.9312155 C1261.46622,84.5848654 1260.56272,87.9925454 1258.75569,91.1543578 C1256.94866,94.3161702 1254.53932,97.126628 1251.5276,99.5858154 C1248.51589,102.045003 1245.03095,103.977193 1241.07269,105.382442 C1237.11444,106.787692 1232.8981,107.490307 1228.42354,107.490307 C1223.94899,107.490307 1219.77568,106.787692 1215.90347,105.382442 C1212.03126,103.977193 1208.58935,102.045003 1205.57763,99.5858154 C1202.56591,97.126628 1200.1996,94.3161702 1198.47862,91.1543578 C1196.75764,87.9925454 1195.89716,84.5848654 1195.89716,80.9312155 C1195.89716,77.2775656 1196.75764,73.7996241 1198.47862,70.4972867 C1200.1996,67.1949493 1202.56591,64.3142301 1205.57763,61.8550427 C1208.58935,59.3958553 1212.03126,57.4636656 1215.90347,56.0584156 C1219.77568,54.6531657 1223.94899,53.9505512 1228.42354,53.9505512 C1232.8981,53.9505512 1237.11444,54.6531657 1241.07269,56.0584156 C1245.03095,57.4636656 1248.51589,59.3958553 1251.5276,61.8550427 C1254.53932,64.3142301 1256.94866,67.1949493 1258.75569,70.4972867 C1260.56272,73.7996241 1261.46622,77.2775656 1261.46622,80.9312155 L1261.46622,80.9312155 Z M1481.92284,183.162639 C1479.85766,186.254189 1476.6739,187.79994 1472.37144,187.79994 C1469.78997,187.79994 1466.86434,187.027065 1463.59448,185.48129 C1460.32462,183.935515 1456.32339,182.214109 1451.59069,180.317022 C1446.858,178.419934 1441.22187,176.663398 1434.68214,175.047361 C1428.14241,173.431323 1420.39811,172.623317 1411.449,172.623317 C1403.70459,172.623317 1396.73472,173.431323 1390.53918,175.047361 C1384.34365,176.663398 1379.05171,178.876634 1374.66321,181.687134 C1370.27471,184.497634 1366.91884,187.764791 1364.59552,191.488703 C1362.27219,195.212615 1361.11055,199.252648 1361.11055,203.608923 C1361.11055,209.089398 1363.04662,213.656392 1366.91883,217.310042 C1370.79104,220.963692 1375.91088,224.125457 1382.27851,226.795432 C1388.64615,229.465407 1395.87416,231.819165 1403.96277,233.856777 C1412.05138,235.89439 1420.355,238.072495 1428.87385,240.391157 C1437.39271,242.70982 1445.69632,245.274362 1453.78494,248.084862 C1461.87355,250.895362 1469.10156,254.408434 1475.46919,258.624184 C1481.83682,262.839934 1486.95667,268.00415 1490.82888,274.116987 C1494.70108,280.229825 1496.63716,287.572146 1496.63716,296.14417 C1496.63716,305.98092 1494.48596,315.079777 1490.18351,323.441014 C1485.88106,331.802252 1479.51352,339.03918 1471.08071,345.152018 C1462.6479,351.264855 1452.32217,356.077764 1440.1032,359.590889 C1427.88423,363.104014 1413.7724,364.86055 1397.76727,364.86055 C1379.52487,364.86055 1363.00369,362.43653 1348.20325,357.588418 C1333.40281,352.740305 1320.83984,346.522167 1310.51395,338.933818 L1321.35608,324.60034 C1322.73286,322.773515 1324.36777,321.368286 1326.26085,320.384611 C1328.15393,319.400936 1330.64931,318.909106 1333.74708,318.909106 C1336.84485,318.909106 1340.11466,319.892766 1343.55663,321.860116 C1346.99859,323.827466 1351.17191,326.005571 1356.0767,328.394496 C1360.9815,330.783421 1366.9188,332.961525 1373.88877,334.928875 C1380.85875,336.896225 1389.5926,337.879885 1400.09058,337.879885 C1409.03969,337.879885 1416.87003,336.931356 1423.58186,335.034268 C1430.29369,333.137181 1435.8868,330.572638 1440.36135,327.340563 C1444.8359,324.108489 1448.14874,320.384632 1450.29997,316.168882 C1452.45119,311.953132 1453.52679,307.4564 1453.52679,302.67855 C1453.52679,296.7765 1451.59071,291.89333 1447.71851,288.028892 C1443.8463,284.164455 1438.72645,280.862167 1432.35882,278.12193 C1425.99119,275.381692 1418.72015,272.992803 1410.54549,270.955191 C1402.37083,268.917578 1394.0242,266.774604 1385.50534,264.526204 C1376.98648,262.277804 1368.63985,259.713262 1360.46518,256.832499 C1352.29052,253.951737 1345.01948,250.333273 1338.65185,245.976998 C1332.28422,241.620723 1327.16438,236.245722 1323.29217,229.851835 C1319.41996,223.457948 1317.48389,215.694058 1317.48389,206.559934 C1317.48389,198.409484 1319.54903,190.575333 1323.67939,183.057245 C1327.80975,175.539158 1333.83309,168.934582 1341.7496,163.24332 C1349.66612,157.552058 1359.38952,153.020195 1370.92009,149.647595 C1382.45067,146.274995 1395.61598,144.58872 1410.41642,144.58872 C1427.62623,144.58872 1443.07181,146.801956 1456.75361,151.228493 C1470.43542,155.65503 1482.26699,161.732645 1492.24868,169.46152 L1481.92284,183.162639 Z" id="lewis"></path>
                <path d="M0.00322415056,376.420518 L0.00322415056,115.067547 L26.3341083,115.067547 C31.3249545,115.067547 34.7668657,116.013534 36.6599452,117.905536 C38.5530248,119.797538 39.8437415,123.065492 40.5321341,127.709497 L43.6298852,168.473337 C52.5789886,150.241317 63.6361284,136.008516 76.8016363,125.774505 C89.9671442,115.540494 105.412721,110.423565 123.13883,110.423565 C130.366952,110.423565 136.906583,111.240554 142.75792,112.874556 C148.609257,114.508557 154.030267,116.787526 159.021113,119.711529 L153.083757,154.025394 C151.87907,158.325398 149.211588,160.475368 145.081233,160.475368 C142.671859,160.475368 138.971804,159.65838 133.980958,158.024378 C128.990112,156.390376 122.020242,155.573388 113.071139,155.573388 C97.0660112,155.573388 83.6855814,160.217323 72.9294475,169.505333 C62.1733135,178.793343 53.1813205,192.295155 45.9531985,210.011173 L45.9531985,376.420518 L0.00322415056,376.420518 Z M259.181731,115.067547 L259.181731,395.770442 C259.181731,406.262453 257.804967,416.023317 255.051396,425.053327 C252.297826,434.083337 247.952413,441.952227 242.015027,448.660234 C236.077641,455.368241 228.419389,460.657167 219.04004,464.527172 C209.660691,468.397176 198.431456,470.332149 185.351997,470.332149 C179.672758,470.332149 174.509891,469.902155 169.863242,469.042154 C165.216592,468.182153 160.570012,466.892171 155.923362,465.172169 L157.988529,440.404267 C158.332725,438.168264 159.107155,436.749284 160.311842,436.147283 C161.516529,435.545283 163.409581,435.244287 165.991053,435.244287 C167.367838,435.244287 168.83065,435.287286 170.379533,435.373286 C171.928417,435.459286 173.821468,435.502286 176.058744,435.502286 C189.482399,435.502286 199.033703,432.36333 204.712941,426.085323 C210.39218,419.807316 213.231757,409.702457 213.231757,395.770442 L213.231757,115.067547 L259.181731,115.067547 Z M269.507568,33.02387 C269.507568,37.4958748 268.604066,41.6668166 266.797036,45.5368208 C264.990005,49.4068249 262.580667,52.8467769 259.56895,55.8567801 C256.557232,58.8667833 253.072297,61.2317504 249.11404,62.9517522 C245.155783,64.671754 240.939442,65.5317421 236.46489,65.5317421 C231.990338,65.5317421 227.817021,64.671754 223.944813,62.9517522 C220.072604,61.2317504 216.630693,58.8667833 213.618976,55.8567801 C210.607258,52.8467769 208.240944,49.4068249 206.519963,45.5368208 C204.798981,41.6668166 203.938503,37.4958748 203.938503,33.02387 C203.938503,28.5518653 204.798981,24.2949246 206.519963,20.2529203 C208.240944,16.210916 210.607258,12.6849651 213.618976,9.67496192 C216.630693,6.66495872 220.072604,4.29999167 223.944813,2.57998984 C227.817021,0.859988015 231.990338,0 236.46489,0 C240.939442,0 245.155783,0.859988015 249.11404,2.57998984 C253.072297,4.29999167 256.557232,6.66495872 259.56895,9.67496192 C262.580667,12.6849651 264.990005,16.210916 266.797036,20.2529203 C268.604066,24.2949246 269.507568,28.5518653 269.507568,33.02387 L269.507568,33.02387 Z" id="rj"></path>
            </g>
        </g>
    </g>
</svg>