<?xml version="1.0" encoding="UTF-8"?>
<svg width="1536px" height="498px" viewBox="0 0 1536 498" version="1.1" xmlns="http://www.w3.org/2000/svg" xmlns:xlink="http://www.w3.org/1999/xlink">
    <!-- Generator: Sketch 43.2 (39069) - http://www.bohemiancoding.com/sketch -->
    <title>rjlewis_digital_logo</title>
    <desc>Created with Sketch.</desc>
    <defs>
        <path d="M463.015264,425.262021 C462.245703,425.262021 461.799365,424.861856 461.676235,424.061512 L461.214501,416.812286 C459.18286,419.582705 456.804953,421.783616 454.080708,423.415085 C451.356463,425.046553 448.301353,425.862276 444.915285,425.862276 C439.2821,425.862276 434.887974,423.907621 431.732775,419.998252 C428.577576,416.088883 427,410.224918 427,402.406181 C427,399.050896 427.438643,395.91883 428.315942,393.009891 C429.193242,390.100951 430.486084,387.576829 432.194509,385.43745 C433.902934,383.298072 435.996108,381.612759 438.474094,380.381462 C440.952079,379.150164 443.807107,378.534525 447.039262,378.534525 C450.148288,378.534525 452.84171,379.111687 455.11961,380.266028 C457.39751,381.420369 459.367556,383.105682 461.029807,385.322017 L461.029807,358.079702 L465.462455,358.079702 L465.462455,425.262021 L463.015264,425.262021 Z M446.161967,422.306923 C449.209428,422.306923 451.964414,421.521982 454.427009,419.952078 C456.889603,418.382174 459.090514,416.196655 461.029807,413.395453 L461.029807,389.15441 C459.244426,386.537904 457.282076,384.690986 455.142697,383.613601 C453.003318,382.536215 450.579238,381.997531 447.870384,381.997531 C445.16153,381.997531 442.791318,382.490043 440.759678,383.47508 C438.728037,384.460118 437.027334,385.853002 435.657515,387.653774 C434.287697,389.454547 433.256501,391.609284 432.563897,394.118053 C431.871292,396.626821 431.524995,399.389502 431.524995,402.406181 C431.524995,409.23988 432.787055,414.265037 435.311215,417.481801 C437.835374,420.698565 441.452255,422.306923 446.161967,422.306923 Z M486.563706,379.319473 L486.563706,425.262021 L482.177231,425.262021 L482.177231,379.319473 L486.563706,379.319473 Z M488.502989,363.481991 C488.502989,364.036075 488.387557,364.551673 488.156689,365.028801 C487.92582,365.505929 487.625696,365.929181 487.256307,366.29857 C486.886918,366.667959 486.45597,366.960388 485.963451,367.175865 C485.470932,367.391342 484.947639,367.499079 484.393555,367.499079 C483.839471,367.499079 483.316178,367.391342 482.823659,367.175865 C482.33114,366.960388 481.900193,366.667959 481.530803,366.29857 C481.161414,365.929181 480.868986,365.505929 480.653509,365.028801 C480.438032,364.551673 480.330295,364.036075 480.330295,363.481991 C480.330295,362.927908 480.438032,362.396919 480.653509,361.889009 C480.868986,361.381099 481.161414,360.942456 481.530803,360.573066 C481.900193,360.203677 482.33114,359.911248 482.823659,359.695771 C483.316178,359.480294 483.839471,359.372558 484.393555,359.372558 C484.947639,359.372558 485.470932,359.480294 485.963451,359.695771 C486.45597,359.911248 486.886918,360.203677 487.256307,360.573066 C487.625696,360.942456 487.92582,361.381099 488.156689,361.889009 C488.387557,362.396919 488.502989,362.927908 488.502989,363.481991 Z M517.961628,378.534525 C519.962486,378.534525 521.8171,378.780781 523.525525,379.2733 C525.23395,379.765818 526.765353,380.458413 528.11978,381.351103 L539.894,381.351103 L539.894,382.874826 C539.894,383.644387 539.463053,384.059943 538.601145,384.121508 L531.628959,384.629416 C532.490867,385.799148 533.152679,387.115077 533.614416,388.577243 C534.076152,390.039408 534.307017,391.601593 534.307017,393.263844 C534.307017,395.480179 533.906852,397.488703 533.106508,399.289475 C532.306165,401.090247 531.190319,402.629346 529.758936,403.906817 C528.327553,405.184287 526.611458,406.177006 524.6106,406.885002 C522.609742,407.592998 520.39344,407.94699 517.961628,407.94699 C515.314339,407.94699 512.913346,407.546825 510.758575,406.746482 C509.465713,407.48526 508.449908,408.362546 507.71113,409.378366 C506.972352,410.394187 506.602968,411.37921 506.602968,412.333465 C506.602968,413.657109 507.064698,414.672914 507.98817,415.38091 C508.911643,416.088906 510.135227,416.604504 511.658957,416.92772 C513.182687,417.250935 514.921869,417.458714 516.876553,417.551061 C518.831237,417.643408 520.816674,417.74345 522.832923,417.851188 C524.849173,417.958927 526.83461,418.151314 528.789294,418.428356 C530.743978,418.705398 532.48316,419.190214 534.00689,419.882818 C535.53062,420.575423 536.754204,421.545055 537.677676,422.791743 C538.601149,424.038432 539.062879,425.692963 539.062879,427.755386 C539.062879,429.663896 538.585758,431.495423 537.631503,433.250022 C536.677248,435.004621 535.299755,436.55911 533.498982,437.913537 C531.69821,439.267964 529.520386,440.353028 526.965444,441.168763 C524.410502,441.984497 521.547779,442.392358 518.377189,442.392358 C515.145034,442.392358 512.313093,442.061452 509.88128,441.39963 C507.449468,440.737808 505.410163,439.84513 503.763303,438.721572 C502.116443,437.598013 500.877469,436.297475 500.046343,434.819918 C499.215217,433.342361 498.799661,431.772481 498.799661,430.11023 C498.799661,427.678418 499.599992,425.585244 501.200678,423.830645 C502.801365,422.076047 505.002276,420.72164 507.803477,419.767385 C506.264355,419.244083 505.040772,418.489925 504.13269,417.504887 C503.224609,416.51985 502.770575,415.150052 502.770575,413.395453 C502.770575,412.749022 502.893702,412.071819 503.139962,411.363823 C503.386221,410.655827 503.755605,409.955537 504.248124,409.262933 C504.740643,408.570328 505.333196,407.916211 506.0258,407.300563 C506.718405,406.684914 507.526432,406.130839 508.449905,405.63832 C506.264352,404.37624 504.563648,402.698623 503.347742,400.605417 C502.131836,398.512212 501.523892,396.065046 501.523892,393.263844 C501.523892,391.047509 501.916362,389.038986 502.701314,387.238214 C503.486266,385.437441 504.594417,383.890648 506.0258,382.597785 C507.457183,381.304923 509.188669,380.304509 511.22031,379.596513 C513.25195,378.888518 515.499034,378.534525 517.961628,378.534525 Z M534.999618,428.35564 C534.999618,426.908866 534.622539,425.746846 533.86837,424.869547 C533.1142,423.992248 532.106091,423.307349 530.844011,422.81483 C529.581931,422.322311 528.127483,421.976014 526.480623,421.775928 C524.833763,421.575843 523.109973,421.429628 521.309201,421.337281 C519.508429,421.244934 517.699988,421.152588 515.883824,421.06024 C514.067661,420.967893 512.374653,420.783201 510.804749,420.506159 C509.635016,420.967896 508.549952,421.498885 507.549523,422.099142 C506.549094,422.6994 505.694894,423.376603 504.986898,424.130773 C504.278903,424.884942 503.724827,425.716055 503.324656,426.624137 C502.924484,427.532219 502.724401,428.524937 502.724401,429.602322 C502.724401,430.956749 503.070698,432.211114 503.763303,433.365456 C504.455908,434.519797 505.471713,435.520211 506.810748,436.366728 C508.149784,437.213244 509.788924,437.882752 511.728217,438.375271 C513.66751,438.86779 515.899203,439.114046 518.423362,439.114046 C520.762827,439.114046 522.940651,438.852399 524.956901,438.329098 C526.97315,437.805796 528.727722,437.067029 530.22067,436.112774 C531.713618,435.158518 532.883333,434.019586 533.729849,432.695941 C534.576366,431.372297 534.999618,429.925544 534.999618,428.35564 Z M517.961628,404.945718 C519.931704,404.945718 521.686276,404.660985 523.225397,404.09151 C524.764519,403.522035 526.057362,402.7294 527.103964,401.713579 C528.150567,400.697759 528.943203,399.481871 529.481895,398.06588 C530.020588,396.649888 530.28993,395.080007 530.28993,393.356191 C530.28993,391.632375 530.012892,390.054799 529.458809,388.623416 C528.904725,387.192033 528.096698,385.96845 527.034704,384.95263 C525.97271,383.936809 524.679868,383.151869 523.156137,382.597785 C521.632407,382.043702 519.900921,381.766664 517.961628,381.766664 C516.022335,381.766664 514.283154,382.043702 512.744032,382.597785 C511.204911,383.151869 509.904372,383.936809 508.842379,384.95263 C507.780385,385.96845 506.972358,387.192033 506.418274,388.623416 C505.864191,390.054799 505.587153,391.632375 505.587153,393.356191 C505.587153,395.080007 505.864191,396.649888 506.418274,398.06588 C506.972358,399.481871 507.780385,400.697759 508.842379,401.713579 C509.904372,402.7294 511.204911,403.522035 512.744032,404.09151 C514.283154,404.660985 516.022335,404.945718 517.961628,404.945718 Z M555.085054,379.319473 L555.085054,425.262021 L550.69858,425.262021 L550.69858,379.319473 L555.085054,379.319473 Z M557.024338,363.481991 C557.024338,364.036075 556.908905,364.551673 556.678037,365.028801 C556.447169,365.505929 556.147044,365.929181 555.777655,366.29857 C555.408266,366.667959 554.977319,366.960388 554.4848,367.175865 C553.992281,367.391342 553.468987,367.499079 552.914904,367.499079 C552.36082,367.499079 551.837526,367.391342 551.345007,367.175865 C550.852489,366.960388 550.421541,366.667959 550.052152,366.29857 C549.682763,365.929181 549.390334,365.505929 549.174857,365.028801 C548.95938,364.551673 548.851643,364.036075 548.851643,363.481991 C548.851643,362.927908 548.95938,362.396919 549.174857,361.889009 C549.390334,361.381099 549.682763,360.942456 550.052152,360.573066 C550.421541,360.203677 550.852489,359.911248 551.345007,359.695771 C551.837526,359.480294 552.36082,359.372558 552.914904,359.372558 C553.468987,359.372558 553.992281,359.480294 554.4848,359.695771 C554.977319,359.911248 555.408266,360.203677 555.777655,360.573066 C556.147044,360.942456 556.447169,361.381099 556.678037,361.889009 C556.908905,362.396919 557.024338,362.927908 557.024338,363.481991 Z M583.897265,426.000796 C580.78824,426.000796 578.36416,425.138901 576.624952,423.415085 C574.885745,421.691268 574.016154,419.028628 574.016154,415.427084 L574.016154,384.029161 L567.413356,384.029161 C567.074749,384.029161 566.797711,383.936815 566.582234,383.752121 C566.366757,383.567426 566.259021,383.305779 566.259021,382.967173 L566.259021,381.258756 L574.108501,380.704675 L575.216663,364.26694 C575.247446,363.989898 575.362878,363.743642 575.562964,363.528165 C575.76305,363.312688 576.032392,363.204951 576.370999,363.204951 L578.448802,363.204951 L578.448802,380.750849 L592.901081,380.750849 L592.901081,384.029161 L578.448802,384.029161 L578.448802,415.196217 C578.448802,416.458296 578.610408,417.543361 578.933623,418.451442 C579.256839,419.359524 579.703177,420.105987 580.272652,420.690853 C580.842127,421.275719 581.511635,421.706667 582.281196,421.983709 C583.050756,422.260751 583.88187,422.399269 584.77456,422.399269 C585.882728,422.399269 586.836969,422.237664 587.637312,421.914449 C588.437655,421.591233 589.130249,421.23724 589.715116,420.85246 C590.299982,420.46768 590.777102,420.113687 591.146491,419.790471 C591.515881,419.467256 591.808309,419.305651 592.023786,419.305651 C592.270046,419.305651 592.516302,419.45956 592.762561,419.767385 L593.96307,421.706668 C592.793337,422.99953 591.308107,424.038422 589.507335,424.823374 C587.706563,425.608326 585.836558,426.000796 583.897265,426.000796 Z M633.57986,425.262021 C632.656387,425.262021 632.086921,424.831074 631.871444,423.969166 L631.225016,418.105142 C629.962936,419.336439 628.708571,420.44459 627.461883,421.429628 C626.215194,422.414665 624.914656,423.245779 623.560229,423.922992 C622.205802,424.600206 620.743658,425.115804 619.173755,425.469802 C617.603851,425.8238 615.88006,426.000796 614.002332,426.000796 C612.432428,426.000796 610.908721,425.769931 609.431164,425.308195 C607.953607,424.846458 606.645374,424.138473 605.506424,423.184217 C604.367474,422.229962 603.45171,421.006379 602.759105,419.513431 C602.066501,418.020483 601.720204,416.227433 601.720204,414.134228 C601.720204,412.194935 602.274279,410.39419 603.382446,408.731938 C604.490614,407.069687 606.2221,405.622935 608.576956,404.391637 C610.931812,403.16034 613.963836,402.175317 617.673119,401.436539 C621.382401,400.697761 625.838091,400.266813 631.040322,400.143683 L631.040322,395.341648 C631.040322,391.093673 630.124559,387.823088 628.293004,385.529797 C626.461449,383.236506 623.744941,382.089878 620.143396,382.089878 C617.927061,382.089878 616.041666,382.397698 614.487153,383.013346 C612.93264,383.628995 611.616711,384.306198 610.539326,385.044976 C609.461941,385.783755 608.584655,386.460958 607.907441,387.076607 C607.230228,387.692255 606.660761,388.000075 606.199025,388.000075 C605.583376,388.000075 605.121647,387.723037 604.813822,387.168954 L604.028874,385.829925 C606.429904,383.428895 608.954025,381.612759 611.601314,380.381462 C614.248603,379.150164 617.249845,378.534525 620.60513,378.534525 C623.067725,378.534525 625.222463,378.926995 627.069409,379.711947 C628.916354,380.496899 630.447757,381.620441 631.663663,383.082606 C632.879569,384.544772 633.795333,386.314735 634.410982,388.392549 C635.02663,390.470363 635.33445,392.786706 635.33445,395.341648 L635.33445,425.262021 L633.57986,425.262021 Z M615.110494,422.81483 C616.895875,422.81483 618.535015,422.622443 620.027963,422.237662 C621.520911,421.852882 622.906099,421.314198 624.18357,420.621593 C625.461041,419.928988 626.653842,419.105571 627.76201,418.151315 C628.870177,417.19706 629.962937,416.165864 631.040322,415.057696 L631.040322,403.098782 C626.669217,403.221912 622.906121,403.552818 619.750922,404.09151 C616.595723,404.630203 613.994647,405.361275 611.947615,406.284747 C609.900583,407.20822 608.392267,408.308676 607.42262,409.586147 C606.452974,410.863618 605.968158,412.318066 605.968158,413.949534 C605.968158,415.488656 606.222109,416.819976 606.730019,417.943535 C607.237929,419.067094 607.907437,419.990553 608.738563,420.71394 C609.569688,421.437327 610.53932,421.968316 611.647488,422.306923 C612.755655,422.645529 613.909979,422.81483 615.110494,422.81483 Z M654.865805,358.079702 L654.865805,425.262021 L650.47933,425.262021 L650.47933,358.079702 L654.865805,358.079702 Z M719.185372,385.460537 C719.03146,385.614449 718.885246,385.745273 718.746725,385.853011 C718.608204,385.96075 718.415816,386.014618 718.169557,386.014618 C717.861733,386.014618 717.438481,385.80684 716.899788,385.391277 C716.361095,384.975714 715.645415,384.52168 714.752724,384.029161 C713.860034,383.536642 712.744187,383.082608 711.405152,382.667046 C710.066116,382.251483 708.442367,382.043704 706.533856,382.043704 C703.886567,382.043704 701.539442,382.513129 699.49241,383.451994 C697.445379,384.390858 695.721589,385.737569 694.320988,387.492167 C692.920387,389.246766 691.850714,391.370722 691.111936,393.864099 C690.373157,396.357476 690.003774,399.158635 690.003774,402.26766 C690.003774,405.499816 690.380853,408.362539 691.135022,410.855916 C691.889192,413.349292 692.958865,415.450162 694.344075,417.158587 C695.729284,418.867012 697.406901,420.16755 699.376977,421.06024 C701.347052,421.952931 703.532572,422.399269 705.933602,422.399269 C708.149937,422.399269 710.004551,422.137623 711.497498,421.614321 C712.990446,421.09102 714.221725,420.521554 715.191372,419.905905 C716.161018,419.290256 716.930567,418.72079 717.500042,418.197489 C718.069517,417.674187 718.523551,417.412541 718.862158,417.412541 C719.26233,417.412541 719.570149,417.56645 719.785626,417.874275 L720.986135,419.351824 C720.278139,420.275297 719.385462,421.137192 718.308077,421.937535 C717.230692,422.737878 716.014804,423.430473 714.660377,424.015339 C713.30595,424.600205 711.836111,425.054239 710.250816,425.377455 C708.665521,425.70067 707.01099,425.862276 705.287174,425.862276 C702.362843,425.862276 699.692507,425.331287 697.276086,424.269293 C694.859666,423.207299 692.781883,421.6682 691.042675,419.651951 C689.303468,417.635702 687.949061,415.165449 686.979415,412.241118 C686.009768,409.316787 685.524952,405.992334 685.524952,402.26766 C685.524952,398.758463 685.986682,395.557138 686.910155,392.66359 C687.833628,389.770041 689.180339,387.276702 690.950329,385.183497 C692.720318,383.090291 694.890447,381.466543 697.46078,380.312201 C700.031113,379.15786 702.978487,378.580698 706.302989,378.580698 C709.288885,378.580698 711.94383,379.057819 714.267903,380.012074 C716.591977,380.96633 718.615891,382.259172 720.339707,383.890641 L719.185372,385.460537 Z M748.459317,378.580698 C751.753037,378.580698 754.700411,379.142469 757.301526,380.266028 C759.902642,381.389587 762.095857,382.982554 763.881238,385.044976 C765.666619,387.107399 767.028721,389.593043 767.967585,392.501983 C768.906449,395.410923 769.375874,398.666116 769.375874,402.26766 C769.375874,405.869205 768.906449,409.116702 767.967585,412.010251 C767.028721,414.903799 765.666619,417.381748 763.881238,419.444171 C762.095857,421.506594 759.902642,423.091865 757.301526,424.200033 C754.700411,425.3082 751.753037,425.862276 748.459317,425.862276 C745.165597,425.862276 742.218224,425.3082 739.617108,424.200033 C737.015993,423.091865 734.815082,421.506594 733.01431,419.444171 C731.213538,417.381748 729.84374,414.903799 728.904876,412.010251 C727.966012,409.116702 727.496587,405.869205 727.496587,402.26766 C727.496587,398.666116 727.966012,395.410923 728.904876,392.501983 C729.84374,389.593043 731.213538,387.107399 733.01431,385.044976 C734.815082,382.982554 737.015993,381.389587 739.617108,380.266028 C742.218224,379.142469 745.165597,378.580698 748.459317,378.580698 Z M748.459317,422.399269 C751.198954,422.399269 753.592252,421.929844 755.639283,420.99098 C757.686315,420.052116 759.394714,418.705405 760.764533,416.950806 C762.134351,415.196208 763.157851,413.079947 763.835065,410.601962 C764.512278,408.123976 764.85088,405.345903 764.85088,402.26766 C764.85088,399.2202 764.512278,396.449822 763.835065,393.956446 C763.157851,391.463069 762.134351,389.331417 760.764533,387.561428 C759.394714,385.791438 757.686315,384.429336 755.639283,383.47508 C753.592252,382.520825 751.198954,382.043704 748.459317,382.043704 C745.719681,382.043704 743.326383,382.520825 741.279351,383.47508 C739.23232,384.429336 737.52392,385.791438 736.154102,387.561428 C734.784284,389.331417 733.753088,391.463069 733.060483,393.956446 C732.367879,396.449822 732.021582,399.2202 732.021582,402.26766 C732.021582,405.345903 732.367879,408.123976 733.060483,410.601962 C733.753088,413.079947 734.784284,415.196208 736.154102,416.950806 C737.52392,418.705405 739.23232,420.052116 741.279351,420.99098 C743.326383,421.929844 745.719681,422.399269 748.459317,422.399269 Z M780.919228,425.262021 L780.919228,379.319473 L783.320246,379.319473 C784.120589,379.319473 784.582319,379.704248 784.705448,380.473808 L785.121009,387.399821 C787.214214,384.752532 789.653685,382.62088 792.439495,381.004803 C795.225305,379.388725 798.326589,378.580698 801.743439,378.580698 C804.267598,378.580698 806.491595,378.980864 808.415497,379.781207 C810.339399,380.58155 811.932366,381.735874 813.194446,383.244213 C814.456525,384.752552 815.410766,386.568689 816.057197,388.692676 C816.703628,390.816664 817.026839,393.217658 817.026839,395.895729 L817.026839,425.262021 L812.640365,425.262021 L812.640365,395.895729 C812.640365,391.586189 811.655342,388.207868 809.685266,385.760664 C807.71519,383.313461 804.698558,382.089878 800.635277,382.089878 C797.618598,382.089878 794.817439,382.867123 792.231715,384.421635 C789.645991,385.976148 787.337343,388.107799 785.305703,390.816653 L785.305703,425.262021 L780.919228,425.262021 Z M843.438033,426.000796 C840.329007,426.000796 837.904927,425.138901 836.16572,423.415085 C834.426512,421.691268 833.556922,419.028628 833.556922,415.427084 L833.556922,384.029161 L826.954123,384.029161 C826.615517,384.029161 826.338479,383.936815 826.123002,383.752121 C825.907525,383.567426 825.799788,383.305779 825.799788,382.967173 L825.799788,381.258756 L833.649269,380.704675 L834.757431,364.26694 C834.788213,363.989898 834.903645,363.743642 835.103731,363.528165 C835.303817,363.312688 835.573159,363.204951 835.911766,363.204951 L837.98957,363.204951 L837.98957,380.750849 L852.441849,380.750849 L852.441849,384.029161 L837.98957,384.029161 L837.98957,415.196217 C837.98957,416.458296 838.151175,417.543361 838.474391,418.451442 C838.797606,419.359524 839.243945,420.105987 839.81342,420.690853 C840.382895,421.275719 841.052402,421.706667 841.821963,421.983709 C842.591524,422.260751 843.422637,422.399269 844.315328,422.399269 C845.423495,422.399269 846.377736,422.237664 847.178079,421.914449 C847.978422,421.591233 848.671017,421.23724 849.255883,420.85246 C849.840749,420.46768 850.31787,420.113687 850.687259,419.790471 C851.056648,419.467256 851.349077,419.305651 851.564554,419.305651 C851.810813,419.305651 852.057069,419.45956 852.303328,419.767385 L853.503837,421.706668 C852.334105,422.99953 850.848875,424.038422 849.048103,424.823374 C847.24733,425.608326 845.377326,426.000796 843.438033,426.000796 Z M881.11554,378.580698 C883.701264,378.580698 886.094562,379.027037 888.295506,379.919727 C890.496449,380.812418 892.404931,382.112956 894.021009,383.821381 C895.637087,385.529806 896.899147,387.630675 897.807229,390.124052 C898.715311,392.617429 899.169345,395.480152 899.169345,398.712307 C899.169345,399.389521 899.069304,399.85125 898.869218,400.09751 C898.669132,400.343769 898.353617,400.466897 897.922663,400.466897 L864.723977,400.466897 L864.723977,401.344192 C864.723977,404.791824 865.124143,407.823848 865.924486,410.440355 C866.724829,413.056861 867.863762,415.250077 869.341319,417.020067 C870.818875,418.790056 872.60423,420.121376 874.697435,421.014067 C876.79064,421.906757 879.13007,422.353096 881.715794,422.353096 C884.024476,422.353096 886.025304,422.099145 887.718338,421.591235 C889.411372,421.083325 890.835038,420.513858 891.989379,419.882818 C893.14372,419.251778 894.059484,418.682312 894.736697,418.174402 C895.413911,417.666492 895.906422,417.412541 896.214246,417.412541 C896.614418,417.412541 896.922238,417.56645 897.137715,417.874275 L898.338223,419.351824 C897.599445,420.275297 896.622118,421.137192 895.406212,421.937535 C894.190306,422.737878 892.835899,423.422777 891.342951,423.992252 C889.850003,424.561727 888.249341,425.015761 886.540916,425.354368 C884.832491,425.692975 883.116396,425.862276 881.39258,425.862276 C878.252772,425.862276 875.390049,425.315896 872.804325,424.223119 C870.218601,423.130343 868.002299,421.537376 866.155353,419.444171 C864.308407,417.350966 862.884741,414.788367 861.884312,411.756297 C860.883883,408.724228 860.383676,405.253561 860.383676,401.344192 C860.383676,398.050472 860.853101,395.010753 861.791965,392.224943 C862.730829,389.439133 864.085236,387.038139 865.855226,385.02189 C867.625216,383.005641 869.795344,381.428065 872.365677,380.289115 C874.93601,379.150165 877.852602,378.580698 881.11554,378.580698 Z M881.161713,381.859011 C878.791466,381.859011 876.66751,382.228394 874.789782,382.967173 C872.912053,383.705951 871.288304,384.767929 869.918486,386.153138 C868.548668,387.538348 867.440517,389.200574 866.594,391.139867 C865.747484,393.07916 865.185713,395.249289 864.908671,397.650319 L895.198431,397.650319 C895.198431,395.187724 894.85983,392.979118 894.182616,391.024434 C893.505403,389.069749 892.551162,387.415219 891.319864,386.060792 C890.088567,384.706365 888.611033,383.667473 886.887216,382.944086 C885.1634,382.220699 883.254918,381.859011 881.161713,381.859011 Z M910.989739,425.262021 L910.989739,379.319473 L913.390757,379.319473 C914.1911,379.319473 914.65283,379.704248 914.775959,380.473808 L915.19152,387.399821 C917.284725,384.752532 919.724196,382.62088 922.510006,381.004803 C925.295816,379.388725 928.3971,378.580698 931.81395,378.580698 C934.338109,378.580698 936.562106,378.980864 938.486008,379.781207 C940.40991,380.58155 942.002877,381.735874 943.264957,383.244213 C944.527036,384.752552 945.481277,386.568689 946.127708,388.692676 C946.774139,390.816664 947.09735,393.217658 947.09735,395.895729 L947.09735,425.262021 L942.710876,425.262021 L942.710876,395.895729 C942.710876,391.586189 941.725853,388.207868 939.755777,385.760664 C937.785701,383.313461 934.769068,382.089878 930.705788,382.089878 C927.689109,382.089878 924.88795,382.867123 922.302226,384.421635 C919.716502,385.976148 917.407854,388.107799 915.376214,390.816653 L915.376214,425.262021 L910.989739,425.262021 Z M973.508544,426.000796 C970.399518,426.000796 967.975438,425.138901 966.236231,423.415085 C964.497023,421.691268 963.627433,419.028628 963.627433,415.427084 L963.627433,384.029161 L957.024634,384.029161 C956.686028,384.029161 956.40899,383.936815 956.193513,383.752121 C955.978036,383.567426 955.870299,383.305779 955.870299,382.967173 L955.870299,381.258756 L963.71978,380.704675 L964.827941,364.26694 C964.858724,363.989898 964.974156,363.743642 965.174242,363.528165 C965.374328,363.312688 965.64367,363.204951 965.982277,363.204951 L968.060081,363.204951 L968.060081,380.750849 L982.51236,380.750849 L982.51236,384.029161 L968.060081,384.029161 L968.060081,415.196217 C968.060081,416.458296 968.221686,417.543361 968.544901,418.451442 C968.868117,419.359524 969.314455,420.105987 969.88393,420.690853 C970.453405,421.275719 971.122913,421.706667 971.892474,421.983709 C972.662035,422.260751 973.493148,422.399269 974.385838,422.399269 C975.494006,422.399269 976.448247,422.237664 977.24859,421.914449 C978.048933,421.591233 978.741528,421.23724 979.326394,420.85246 C979.91126,420.46768 980.388381,420.113687 980.75777,419.790471 C981.127159,419.467256 981.419588,419.305651 981.635065,419.305651 C981.881324,419.305651 982.12758,419.45956 982.373839,419.767385 L983.574348,421.706668 C982.404616,422.99953 980.919386,424.038422 979.118614,424.823374 C977.317841,425.608326 975.447837,426.000796 973.508544,426.000796 Z M1044.24622,425.262021 C1043.47666,425.262021 1043.03032,424.861856 1042.90719,424.061512 L1042.44545,416.812286 C1040.41381,419.582705 1038.03591,421.783616 1035.31166,423.415085 C1032.58741,425.046553 1029.5323,425.862276 1026.14624,425.862276 C1020.51305,425.862276 1016.11893,423.907621 1012.96373,419.998252 C1009.80853,416.088883 1008.23095,410.224918 1008.23095,402.406181 C1008.23095,399.050896 1008.66959,395.91883 1009.54689,393.009891 C1010.42419,390.100951 1011.71704,387.576829 1013.42546,385.43745 C1015.13389,383.298072 1017.22706,381.612759 1019.70505,380.381462 C1022.18303,379.150164 1025.03806,378.534525 1028.27021,378.534525 C1031.37924,378.534525 1034.07266,379.111687 1036.35056,380.266028 C1038.62846,381.420369 1040.59851,383.105682 1042.26076,385.322017 L1042.26076,358.079702 L1046.69341,358.079702 L1046.69341,425.262021 L1044.24622,425.262021 Z M1027.39292,422.306923 C1030.44038,422.306923 1033.19537,421.521982 1035.65796,419.952078 C1038.12056,418.382174 1040.32147,416.196655 1042.26076,413.395453 L1042.26076,389.15441 C1040.47538,386.537904 1038.51303,384.690986 1036.37365,383.613601 C1034.23427,382.536215 1031.81019,381.997531 1029.10134,381.997531 C1026.39248,381.997531 1024.02227,382.490043 1021.99063,383.47508 C1019.95899,384.460118 1018.25829,385.853002 1016.88847,387.653774 C1015.51865,389.454547 1014.48745,391.609284 1013.79485,394.118053 C1013.10224,396.626821 1012.75595,399.389502 1012.75595,402.406181 C1012.75595,409.23988 1014.01801,414.265037 1016.54217,417.481801 C1019.06633,420.698565 1022.68321,422.306923 1027.39292,422.306923 Z M1079.43036,378.580698 C1082.01608,378.580698 1084.40938,379.027037 1086.61032,379.919727 C1088.81127,380.812418 1090.71975,382.112956 1092.33583,383.821381 C1093.95191,385.529806 1095.21397,387.630675 1096.12205,390.124052 C1097.03013,392.617429 1097.48416,395.480152 1097.48416,398.712307 C1097.48416,399.389521 1097.38412,399.85125 1097.18404,400.09751 C1096.98395,400.343769 1096.66844,400.466897 1096.23748,400.466897 L1063.0388,400.466897 L1063.0388,401.344192 C1063.0388,404.791824 1063.43896,407.823848 1064.2393,410.440355 C1065.03965,413.056861 1066.17858,415.250077 1067.65614,417.020067 C1069.13369,418.790056 1070.91905,420.121376 1073.01225,421.014067 C1075.10546,421.906757 1077.44489,422.353096 1080.03061,422.353096 C1082.33929,422.353096 1084.34012,422.099145 1086.03316,421.591235 C1087.72619,421.083325 1089.14986,420.513858 1090.3042,419.882818 C1091.45854,419.251778 1092.3743,418.682312 1093.05152,418.174402 C1093.72873,417.666492 1094.22124,417.412541 1094.52907,417.412541 C1094.92924,417.412541 1095.23706,417.56645 1095.45253,417.874275 L1096.65304,419.351824 C1095.91426,420.275297 1094.93694,421.137192 1093.72103,421.937535 C1092.50512,422.737878 1091.15072,423.422777 1089.65777,423.992252 C1088.16482,424.561727 1086.56416,425.015761 1084.85573,425.354368 C1083.14731,425.692975 1081.43121,425.862276 1079.7074,425.862276 C1076.56759,425.862276 1073.70487,425.315896 1071.11914,424.223119 C1068.53342,423.130343 1066.31712,421.537376 1064.47017,419.444171 C1062.62323,417.350966 1061.19956,414.788367 1060.19913,411.756297 C1059.1987,408.724228 1058.69849,405.253561 1058.69849,401.344192 C1058.69849,398.050472 1059.16792,395.010753 1060.10678,392.224943 C1061.04565,389.439133 1062.40005,387.038139 1064.17004,385.02189 C1065.94003,383.005641 1068.11016,381.428065 1070.6805,380.289115 C1073.25083,379.150165 1076.16742,378.580698 1079.43036,378.580698 Z M1079.47653,381.859011 C1077.10628,381.859011 1074.98233,382.228394 1073.1046,382.967173 C1071.22687,383.705951 1069.60312,384.767929 1068.23331,386.153138 C1066.86349,387.538348 1065.75534,389.200574 1064.90882,391.139867 C1064.0623,393.07916 1063.50053,395.249289 1063.22349,397.650319 L1093.51325,397.650319 C1093.51325,395.187724 1093.17465,392.979118 1092.49743,391.024434 C1091.82022,389.069749 1090.86598,387.415219 1089.63468,386.060792 C1088.40339,384.706365 1086.92585,383.667473 1085.20204,382.944086 C1083.47822,382.220699 1081.56974,381.859011 1079.47653,381.859011 Z M1126.2502,425.262021 L1122.37163,425.262021 L1102.9788,379.319473 L1106.44181,379.319473 C1106.87276,379.319473 1107.21906,379.434905 1107.48071,379.665774 C1107.74236,379.896642 1107.93475,380.150593 1108.05788,380.427635 L1123.20276,416.673766 C1123.51058,417.381762 1123.74145,418.058965 1123.89536,418.705396 L1124.35709,420.64468 C1124.511,419.998249 1124.67261,419.344132 1124.84191,418.682309 C1125.01122,418.020487 1125.23438,417.350979 1125.51143,416.673766 L1140.74865,380.427635 C1140.90257,380.089028 1141.11034,379.819686 1141.37199,379.6196 C1141.63365,379.419514 1141.94916,379.319473 1142.31855,379.319473 L1145.64304,379.319473 L1126.2502,425.262021 Z M1171.5925,378.580698 C1174.17822,378.580698 1176.57152,379.027037 1178.77246,379.919727 C1180.97341,380.812418 1182.88189,382.112956 1184.49796,383.821381 C1186.11404,385.529806 1187.3761,387.630675 1188.28418,390.124052 C1189.19227,392.617429 1189.6463,395.480152 1189.6463,398.712307 C1189.6463,399.389521 1189.54626,399.85125 1189.34617,400.09751 C1189.14609,400.343769 1188.83057,400.466897 1188.39962,400.466897 L1155.20093,400.466897 L1155.20093,401.344192 C1155.20093,404.791824 1155.6011,407.823848 1156.40144,410.440355 C1157.20178,413.056861 1158.34072,415.250077 1159.81827,417.020067 C1161.29583,418.790056 1163.08119,420.121376 1165.17439,421.014067 C1167.2676,421.906757 1169.60703,422.353096 1172.19275,422.353096 C1174.50143,422.353096 1176.50226,422.099145 1178.19529,421.591235 C1179.88833,421.083325 1181.31199,420.513858 1182.46633,419.882818 C1183.62068,419.251778 1184.53644,418.682312 1185.21365,418.174402 C1185.89087,417.666492 1186.38338,417.412541 1186.6912,417.412541 C1187.09137,417.412541 1187.39919,417.56645 1187.61467,417.874275 L1188.81518,419.351824 C1188.0764,420.275297 1187.09907,421.137192 1185.88317,421.937535 C1184.66726,422.737878 1183.31285,423.422777 1181.81991,423.992252 C1180.32696,424.561727 1178.7263,425.015761 1177.01787,425.354368 C1175.30945,425.692975 1173.59335,425.862276 1171.86954,425.862276 C1168.72973,425.862276 1165.867,425.315896 1163.28128,424.223119 C1160.69556,423.130343 1158.47925,421.537376 1156.63231,419.444171 C1154.78536,417.350966 1153.3617,414.788367 1152.36127,411.756297 C1151.36084,408.724228 1150.86063,405.253561 1150.86063,401.344192 C1150.86063,398.050472 1151.33006,395.010753 1152.26892,392.224943 C1153.20779,389.439133 1154.56219,387.038139 1156.33218,385.02189 C1158.10217,383.005641 1160.2723,381.428065 1162.84263,380.289115 C1165.41297,379.150165 1168.32956,378.580698 1171.5925,378.580698 Z M1171.63867,381.859011 C1169.26842,381.859011 1167.14447,382.228394 1165.26674,382.967173 C1163.38901,383.705951 1161.76526,384.767929 1160.39544,386.153138 C1159.02562,387.538348 1157.91747,389.200574 1157.07096,391.139867 C1156.22444,393.07916 1155.66267,395.249289 1155.38563,397.650319 L1185.67539,397.650319 C1185.67539,395.187724 1185.33679,392.979118 1184.65957,391.024434 C1183.98236,389.069749 1183.02812,387.415219 1181.79682,386.060792 C1180.56552,384.706365 1179.08799,383.667473 1177.36417,382.944086 C1175.64036,382.220699 1173.73187,381.859011 1171.63867,381.859011 Z M1207.14603,358.079702 L1207.14603,425.262021 L1202.75955,425.262021 L1202.75955,358.079702 L1207.14603,358.079702 Z M1240.89879,378.580698 C1244.19251,378.580698 1247.13989,379.142469 1249.741,380.266028 C1252.34212,381.389587 1254.53533,382.982554 1256.32071,385.044976 C1258.10609,387.107399 1259.4682,389.593043 1260.40706,392.501983 C1261.34592,395.410923 1261.81535,398.666116 1261.81535,402.26766 C1261.81535,405.869205 1261.34592,409.116702 1260.40706,412.010251 C1259.4682,414.903799 1258.10609,417.381748 1256.32071,419.444171 C1254.53533,421.506594 1252.34212,423.091865 1249.741,424.200033 C1247.13989,425.3082 1244.19251,425.862276 1240.89879,425.862276 C1237.60507,425.862276 1234.6577,425.3082 1232.05658,424.200033 C1229.45547,423.091865 1227.25456,421.506594 1225.45378,419.444171 C1223.65301,417.381748 1222.28321,414.903799 1221.34435,412.010251 C1220.40549,409.116702 1219.93606,405.869205 1219.93606,402.26766 C1219.93606,398.666116 1220.40549,395.410923 1221.34435,392.501983 C1222.28321,389.593043 1223.65301,387.107399 1225.45378,385.044976 C1227.25456,382.982554 1229.45547,381.389587 1232.05658,380.266028 C1234.6577,379.142469 1237.60507,378.580698 1240.89879,378.580698 Z M1240.89879,422.399269 C1243.63843,422.399269 1246.03173,421.929844 1248.07876,420.99098 C1250.12579,420.052116 1251.83419,418.705405 1253.20401,416.950806 C1254.57382,415.196208 1255.59733,413.079947 1256.27454,410.601962 C1256.95175,408.123976 1257.29035,405.345903 1257.29035,402.26766 C1257.29035,399.2202 1256.95175,396.449822 1256.27454,393.956446 C1255.59733,391.463069 1254.57382,389.331417 1253.20401,387.561428 C1251.83419,385.791438 1250.12579,384.429336 1248.07876,383.47508 C1246.03173,382.520825 1243.63843,382.043704 1240.89879,382.043704 C1238.15916,382.043704 1235.76586,382.520825 1233.71883,383.47508 C1231.67179,384.429336 1229.96339,385.791438 1228.59358,387.561428 C1227.22376,389.331417 1226.19256,391.463069 1225.49996,393.956446 C1224.80735,396.449822 1224.46106,399.2202 1224.46106,402.26766 C1224.46106,405.345903 1224.80735,408.123976 1225.49996,410.601962 C1226.19256,413.079947 1227.22376,415.196208 1228.59358,416.950806 C1229.96339,418.705405 1231.67179,420.052116 1233.71883,420.99098 C1235.76586,421.929844 1238.15916,422.399269 1240.89879,422.399269 Z M1273.3587,441.515063 L1273.3587,379.319473 L1275.75972,379.319473 C1276.15989,379.319473 1276.4831,379.404123 1276.72936,379.573427 C1276.97562,379.74273 1277.11414,380.042854 1277.14492,380.473808 L1277.56048,387.584514 C1279.59212,384.814096 1281.97003,382.613185 1284.69428,380.981716 C1287.41852,379.350247 1290.47363,378.534525 1293.8597,378.534525 C1299.52367,378.534525 1303.92549,380.48918 1307.0653,384.398549 C1310.2051,388.307917 1311.77498,394.171882 1311.77498,401.99062 C1311.77498,405.345905 1311.33634,408.47797 1310.45904,411.38691 C1309.58174,414.29585 1308.2966,416.819971 1306.60356,418.95935 C1304.91053,421.098729 1302.82505,422.784042 1300.34706,424.015339 C1297.86908,425.246636 1295.01405,425.862276 1291.7819,425.862276 C1288.64209,425.862276 1285.93327,425.292809 1283.65537,424.153859 C1281.37747,423.014909 1279.40743,421.321901 1277.74518,419.074784 L1277.74518,441.515063 L1273.3587,441.515063 Z M1292.61302,382.089878 C1289.56556,382.089878 1286.80287,382.882514 1284.32489,384.467809 C1281.8469,386.053104 1279.65369,388.26171 1277.74518,391.093694 L1277.74518,415.196217 C1279.49978,417.843506 1281.44674,419.705815 1283.58611,420.7832 C1285.72549,421.860585 1288.16496,422.399269 1290.9046,422.399269 C1293.61345,422.399269 1295.98367,421.906758 1298.01531,420.92172 C1300.04695,419.936682 1301.74765,418.543798 1303.11747,416.743026 C1304.48729,414.942254 1305.51848,412.787516 1306.21109,410.278748 C1306.90369,407.76998 1307.24999,405.007298 1307.24999,401.99062 C1307.24999,395.15692 1305.99562,390.131764 1303.48686,386.915 C1300.97809,383.698236 1297.35351,382.089878 1292.61302,382.089878 Z M1322.76426,425.262021 L1322.76426,379.319473 L1325.16527,379.319473 C1325.96562,379.319473 1326.42735,379.704248 1326.55048,380.473808 L1326.96604,387.12278 C1327.85873,385.8607 1328.81297,384.706377 1329.82879,383.659774 C1330.84461,382.613171 1331.92967,381.712799 1333.08402,380.958629 C1334.23836,380.20446 1335.46964,379.619602 1336.77789,379.204039 C1338.08614,378.788477 1339.46363,378.580698 1340.91041,378.580698 C1344.26569,378.580698 1346.94373,379.558026 1348.94458,381.51271 C1350.94544,383.467395 1352.29985,386.183903 1353.00784,389.662318 C1353.56193,387.753807 1354.33917,386.106972 1355.3396,384.721763 C1356.34003,383.336553 1357.48666,382.189925 1358.77952,381.281843 C1360.07238,380.373761 1361.48066,379.696558 1363.00439,379.250213 C1364.52812,378.803868 1366.0903,378.580698 1367.69099,378.580698 C1369.96889,378.580698 1372.01589,378.957777 1373.83205,379.711947 C1375.64822,380.466117 1377.19501,381.581963 1378.47248,383.05952 C1379.74995,384.537076 1380.72728,386.353212 1381.40449,388.507983 C1382.08171,390.662753 1382.42031,393.12531 1382.42031,395.895729 L1382.42031,425.262021 L1377.98766,425.262021 L1377.98766,395.895729 C1377.98766,391.401494 1377.01803,387.977 1375.07874,385.622144 C1373.13944,383.267288 1370.36907,382.089878 1366.76752,382.089878 C1365.16684,382.089878 1363.63543,382.382307 1362.17327,382.967173 C1360.7111,383.552039 1359.41826,384.42163 1358.2947,385.575971 C1357.17114,386.730312 1356.27846,388.169369 1355.61664,389.893185 C1354.95482,391.617001 1354.62391,393.617829 1354.62391,395.895729 L1354.62391,425.262021 L1350.23744,425.262021 L1350.23744,395.895729 C1350.23744,391.432277 1349.34476,388.015478 1347.55938,385.645231 C1345.774,383.274984 1343.17292,382.089878 1339.75607,382.089878 C1337.2627,382.089878 1334.95405,382.836341 1332.83006,384.329289 C1330.70607,385.822236 1328.81298,387.892324 1327.15073,390.539613 L1327.15073,425.262021 L1322.76426,425.262021 Z M1413.54119,378.580698 C1416.12692,378.580698 1418.52021,379.027037 1420.72116,379.919727 C1422.9221,380.812418 1424.83058,382.112956 1426.44666,383.821381 C1428.06274,385.529806 1429.3248,387.630675 1430.23288,390.124052 C1431.14096,392.617429 1431.595,395.480152 1431.595,398.712307 C1431.595,399.389521 1431.49496,399.85125 1431.29487,400.09751 C1431.09478,400.343769 1430.77927,400.466897 1430.34831,400.466897 L1397.14963,400.466897 L1397.14963,401.344192 C1397.14963,404.791824 1397.54979,407.823848 1398.35014,410.440355 C1399.15048,413.056861 1400.28941,415.250077 1401.76697,417.020067 C1403.24453,418.790056 1405.02988,420.121376 1407.12309,421.014067 C1409.21629,421.906757 1411.55572,422.353096 1414.14145,422.353096 C1416.45013,422.353096 1418.45096,422.099145 1420.14399,421.591235 C1421.83702,421.083325 1423.26069,420.513858 1424.41503,419.882818 C1425.56937,419.251778 1426.48514,418.682312 1427.16235,418.174402 C1427.83956,417.666492 1428.33207,417.412541 1428.6399,417.412541 C1429.04007,417.412541 1429.34789,417.56645 1429.56337,417.874275 L1430.76388,419.351824 C1430.0251,420.275297 1429.04777,421.137192 1427.83186,421.937535 C1426.61596,422.737878 1425.26155,423.422777 1423.7686,423.992252 C1422.27566,424.561727 1420.67499,425.015761 1418.96657,425.354368 C1417.25814,425.692975 1415.54205,425.862276 1413.81823,425.862276 C1410.67842,425.862276 1407.8157,425.315896 1405.22998,424.223119 C1402.64425,423.130343 1400.42795,421.537376 1398.581,419.444171 C1396.73406,417.350966 1395.31039,414.788367 1394.30996,411.756297 C1393.30953,408.724228 1392.80933,405.253561 1392.80933,401.344192 C1392.80933,398.050472 1393.27875,395.010753 1394.21762,392.224943 C1395.15648,389.439133 1396.51089,387.038139 1398.28088,385.02189 C1400.05087,383.005641 1402.221,381.428065 1404.79133,380.289115 C1407.36166,379.150165 1410.27825,378.580698 1413.54119,378.580698 Z M1413.58736,381.859011 C1411.21712,381.859011 1409.09316,382.228394 1407.21543,382.967173 C1405.33771,383.705951 1403.71396,384.767929 1402.34414,386.153138 C1400.97432,387.538348 1399.86617,389.200574 1399.01965,391.139867 C1398.17314,393.07916 1397.61136,395.249289 1397.33432,397.650319 L1427.62408,397.650319 C1427.62408,395.187724 1427.28548,392.979118 1426.60827,391.024434 C1425.93105,389.069749 1424.97681,387.415219 1423.74552,386.060792 C1422.51422,384.706365 1421.03668,383.667473 1419.31287,382.944086 C1417.58905,382.220699 1415.68057,381.859011 1413.58736,381.859011 Z M1443.41539,425.262021 L1443.41539,379.319473 L1445.81641,379.319473 C1446.61675,379.319473 1447.07848,379.704248 1447.20161,380.473808 L1447.61717,387.399821 C1449.71038,384.752532 1452.14985,382.62088 1454.93566,381.004803 C1457.72147,379.388725 1460.82275,378.580698 1464.2396,378.580698 C1466.76376,378.580698 1468.98776,378.980864 1470.91166,379.781207 C1472.83556,380.58155 1474.42853,381.735874 1475.69061,383.244213 C1476.95269,384.752552 1477.90693,386.568689 1478.55336,388.692676 C1479.19979,390.816664 1479.523,393.217658 1479.523,395.895729 L1479.523,425.262021 L1475.13653,425.262021 L1475.13653,395.895729 C1475.13653,391.586189 1474.1515,388.207868 1472.18143,385.760664 C1470.21135,383.313461 1467.19472,382.089878 1463.13144,382.089878 C1460.11476,382.089878 1457.3136,382.867123 1454.72788,384.421635 C1452.14215,385.976148 1449.83351,388.107799 1447.80187,390.816653 L1447.80187,425.262021 L1443.41539,425.262021 Z M1505.9342,426.000796 C1502.82517,426.000796 1500.40109,425.138901 1498.66188,423.415085 C1496.92268,421.691268 1496.05308,419.028628 1496.05308,415.427084 L1496.05308,384.029161 L1489.45029,384.029161 C1489.11168,384.029161 1488.83464,383.936815 1488.61916,383.752121 C1488.40369,383.567426 1488.29595,383.305779 1488.29595,382.967173 L1488.29595,381.258756 L1496.14543,380.704675 L1497.25359,364.26694 C1497.28438,363.989898 1497.39981,363.743642 1497.59989,363.528165 C1497.79998,363.312688 1498.06932,363.204951 1498.40793,363.204951 L1500.48573,363.204951 L1500.48573,380.750849 L1514.93801,380.750849 L1514.93801,384.029161 L1500.48573,384.029161 L1500.48573,415.196217 C1500.48573,416.458296 1500.64734,417.543361 1500.97055,418.451442 C1501.29377,419.359524 1501.74011,420.105987 1502.30958,420.690853 C1502.87906,421.275719 1503.54857,421.706667 1504.31813,421.983709 C1505.08769,422.260751 1505.9188,422.399269 1506.81149,422.399269 C1507.91966,422.399269 1508.8739,422.237664 1509.67424,421.914449 C1510.47459,421.591233 1511.16718,421.23724 1511.75205,420.85246 C1512.33691,420.46768 1512.81403,420.113687 1513.18342,419.790471 C1513.55281,419.467256 1513.84524,419.305651 1514.06072,419.305651 C1514.30698,419.305651 1514.55323,419.45956 1514.79949,419.767385 L1516,421.706668 C1514.83027,422.99953 1513.34504,424.038422 1511.54427,424.823374 C1509.74349,425.608326 1507.87349,426.000796 1505.9342,426.000796 Z" id="path-1"></path>
        <filter x="-2.1%" y="-16.0%" width="104.1%" height="153.4%" filterUnits="objectBoundingBox" id="filter-2">
            <feOffset dx="0" dy="9" in="SourceAlpha" result="shadowOffsetOuter1"></feOffset>
            <feGaussianBlur stdDeviation="6" in="shadowOffsetOuter1" result="shadowBlurOuter1"></feGaussianBlur>
            <feColorMatrix values="0 0 0 0 0   0 0 0 0 0   0 0 0 0 0  0 0 0 1 0" type="matrix" in="shadowBlurOuter1"></feColorMatrix>
        </filter>
    </defs>
    <g id="Page-2" stroke="none" stroke-width="1" fill="none" fill-rule="evenodd">
        <g id="rjlewis_digital_logo">
            <g id="rj-+-lewis(lato)-+-just" transform="translate(7.500000, 0.000000)">
                <g id="rj-+-lewis(lato)-copy" transform="translate(11.680000, 11.330000)" stroke="#145990" stroke-width="5" fill="#145990">
                    <path d="M469.953191,-0.000458936539 L469.953191,310.487967 L424.003217,310.487967 L424.003217,-0.000458936539 L469.953191,-0.000458936539 Z M654.527526,93.5887203 C670.188457,93.5887203 684.644484,95.7316943 697.896041,100.017707 C711.147598,104.303719 722.591953,110.486726 732.229449,118.566913 C741.866945,126.647101 749.396126,136.624226 754.817217,148.498588 C760.238309,160.37295 762.948814,173.898278 762.948814,189.074977 C762.948814,194.977027 762.174384,198.911668 760.6255,200.879018 C759.076617,202.846368 756.150993,203.830028 751.848539,203.830028 L577.858187,203.830028 C578.202383,217.320428 580.439625,229.054089 584.569981,239.031364 C588.700336,249.008638 594.37949,257.334619 601.607612,264.009557 C608.835734,270.684494 617.440512,275.673057 627.422204,278.975394 C637.403896,282.277731 648.590108,283.928875 660.981174,283.928875 C672.51175,283.928875 682.450268,282.839823 690.797028,280.661685 C699.143788,278.483548 706.328778,276.12979 712.352213,273.60034 C718.375648,271.07089 723.409443,268.717131 727.453749,266.538994 C731.498056,264.360857 734.982991,263.271804 737.908659,263.271804 C741.694818,263.271804 744.620443,264.466249 746.685621,266.855174 L759.592917,280.556292 C753.913678,286.177292 747.115903,291.060462 739.199389,295.20595 C731.282874,299.351437 722.807168,302.759117 713.772015,305.429092 C704.736863,308.099067 695.400679,310.101518 685.763183,311.436506 C676.125687,312.771493 666.574383,313.438977 657.108985,313.438977 C639.03868,313.438977 622.388435,310.944696 607.157749,305.956058 C591.927063,300.967421 578.761753,293.660231 567.661423,284.034268 C556.561093,274.408306 547.913291,262.498992 541.717757,248.305967 C535.522224,234.112942 532.424504,217.812287 532.424504,199.403513 C532.424504,184.507863 535.221057,170.596098 540.814247,157.667798 C546.407436,144.739498 554.452904,133.532798 564.950891,124.047361 C575.448877,114.561924 588.269997,107.114211 603.414633,101.703998 C618.55927,96.2937859 635.59673,93.5887203 654.527526,93.5887203 L654.527526,93.5887203 Z M655.56011,121.201744 C633.359449,121.201744 615.89175,126.436221 603.156487,136.905334 C590.421225,147.374446 582.504829,161.883434 579.407062,180.432733 L721.645466,180.432733 C721.645466,171.720184 720.182654,163.74551 717.256985,156.508472 C714.331317,149.271435 710.028928,143.018167 704.349689,137.748479 C698.67045,132.478792 691.743604,128.403628 683.568942,125.522866 C675.394281,122.642103 666.058096,121.201744 655.56011,121.201744 L655.56011,121.201744 Z M787.472676,96.9613033 L823.613106,96.9613033 C827.399265,96.9613033 830.496985,97.7341792 832.906359,99.2799541 C835.315733,100.825729 836.950641,102.652527 837.811131,104.760402 L887.89144,242.19316 C889.268226,247.25206 890.558942,252.13523 891.763629,256.842818 C892.968316,261.550405 894.00089,266.293053 894.86138,271.070902 C896.238166,266.293053 897.787026,261.550405 899.508007,256.842818 C901.228988,252.13523 903.035992,247.25206 904.929071,242.19316 L960.172299,103.917256 C961.03279,101.809381 962.538626,100.052845 964.689853,98.6475948 C966.841079,97.2423449 969.551585,96.5397304 972.821449,96.5397304 L992.698685,96.5397304 C996.140648,96.5397304 998.980225,97.2423449 1001.2175,98.6475948 C1003.45478,100.052845 1005.00364,101.809381 1005.86413,103.917256 L1059.81663,242.19316 C1061.7097,247.111535 1063.38764,251.959575 1064.85047,256.737425 C1066.31331,261.515274 1067.73309,266.222791 1069.10988,270.860116 C1069.97037,266.222791 1071.08899,261.374752 1072.46578,256.315852 C1073.84256,251.256952 1075.30537,246.549435 1076.85426,242.19316 L1127.96715,104.760402 C1128.82764,102.512002 1130.46255,100.650073 1132.87192,99.1745609 C1135.2813,97.6990485 1138.12087,96.9613033 1141.39074,96.9613033 L1175.98229,96.9613033 L1091.31043,310.487967 L1054.91185,310.487967 C1050.4373,310.487967 1047.33958,308.099078 1045.6186,303.321228 L987.793913,158.510944 C986.417128,155.278869 985.298506,152.011712 984.438016,148.709374 C983.577525,145.407037 982.717047,142.13988 981.856557,138.907805 C980.996066,142.13988 980.135588,145.442168 979.275097,148.814767 C978.414607,152.187367 977.295985,155.489655 975.9192,158.72173 L917.320076,303.321228 C915.426996,308.099078 911.899037,310.487967 906.736093,310.487967 L872.144539,310.487967 L787.472676,96.9613033 Z M1268.14039,96.9613033 L1268.14039,310.487967 L1222.19041,310.487967 L1222.19041,96.9613033 L1268.14039,96.9613033 Z M1278.46622,29.9312155 C1278.46622,33.5848654 1277.56272,36.9925454 1275.75569,40.1543578 C1273.94866,43.3161702 1271.53932,46.126628 1268.5276,48.5858154 C1265.51589,51.0450028 1262.03095,52.9771925 1258.07269,54.3824425 C1254.11444,55.7876924 1249.8981,56.4903069 1245.42354,56.4903069 C1240.94899,56.4903069 1236.77568,55.7876924 1232.90347,54.3824425 C1229.03126,52.9771925 1225.58935,51.0450028 1222.57763,48.5858154 C1219.56591,46.126628 1217.1996,43.3161702 1215.47862,40.1543578 C1213.75764,36.9925454 1212.89716,33.5848654 1212.89716,29.9312155 C1212.89716,26.2775656 1213.75764,22.7996241 1215.47862,19.4972867 C1217.1996,16.1949493 1219.56591,13.3142301 1222.57763,10.8550427 C1225.58935,8.39585528 1229.03126,6.46366557 1232.90347,5.05841561 C1236.77568,3.65316566 1240.94899,2.95055122 1245.42354,2.95055122 C1249.8981,2.95055122 1254.11444,3.65316566 1258.07269,5.05841561 C1262.03095,6.46366557 1265.51589,8.39585528 1268.5276,10.8550427 C1271.53932,13.3142301 1273.94866,16.1949493 1275.75569,19.4972867 C1277.56272,22.7996241 1278.46622,26.2775656 1278.46622,29.9312155 L1278.46622,29.9312155 Z M1498.92284,128.162639 C1496.85766,131.254189 1493.6739,132.79994 1489.37144,132.79994 C1486.78997,132.79994 1483.86434,132.027065 1480.59448,130.48129 C1477.32462,128.935515 1473.32339,127.214109 1468.59069,125.317022 C1463.858,123.419934 1458.22187,121.663398 1451.68214,120.047361 C1445.14241,118.431323 1437.39811,117.623317 1428.449,117.623317 C1420.70459,117.623317 1413.73472,118.431323 1407.53918,120.047361 C1401.34365,121.663398 1396.05171,123.876634 1391.66321,126.687134 C1387.27471,129.497634 1383.91884,132.764791 1381.59552,136.488703 C1379.27219,140.212615 1378.11055,144.252648 1378.11055,148.608923 C1378.11055,154.089398 1380.04662,158.656392 1383.91883,162.310042 C1387.79104,165.963692 1392.91088,169.125457 1399.27851,171.795432 C1405.64615,174.465407 1412.87416,176.819165 1420.96277,178.856777 C1429.05138,180.89439 1437.355,183.072495 1445.87385,185.391157 C1454.39271,187.70982 1462.69632,190.274362 1470.78494,193.084862 C1478.87355,195.895362 1486.10156,199.408434 1492.46919,203.624184 C1498.83682,207.839934 1503.95667,213.00415 1507.82888,219.116987 C1511.70108,225.229825 1513.63716,232.572146 1513.63716,241.14417 C1513.63716,250.98092 1511.48596,260.079777 1507.18351,268.441014 C1502.88106,276.802252 1496.51352,284.03918 1488.08071,290.152018 C1479.6479,296.264855 1469.32217,301.077764 1457.1032,304.590889 C1444.88423,308.104014 1430.7724,309.86055 1414.76727,309.86055 C1396.52487,309.86055 1380.00369,307.43653 1365.20325,302.588418 C1350.40281,297.740305 1337.83984,291.522167 1327.51395,283.933818 L1338.35608,269.60034 C1339.73286,267.773515 1341.36777,266.368286 1343.26085,265.384611 C1345.15393,264.400936 1347.64931,263.909106 1350.74708,263.909106 C1353.84485,263.909106 1357.11466,264.892766 1360.55663,266.860116 C1363.99859,268.827466 1368.17191,271.005571 1373.0767,273.394496 C1377.9815,275.783421 1383.9188,277.961525 1390.88877,279.928875 C1397.85875,281.896225 1406.5926,282.879885 1417.09058,282.879885 C1426.03969,282.879885 1433.87003,281.931356 1440.58186,280.034268 C1447.29369,278.137181 1452.8868,275.572638 1457.36135,272.340563 C1461.8359,269.108489 1465.14874,265.384632 1467.29997,261.168882 C1469.45119,256.953132 1470.52679,252.4564 1470.52679,247.67855 C1470.52679,241.7765 1468.59071,236.89333 1464.71851,233.028892 C1460.8463,229.164455 1455.72645,225.862167 1449.35882,223.12193 C1442.99119,220.381692 1435.72015,217.992803 1427.54549,215.955191 C1419.37083,213.917578 1411.0242,211.774604 1402.50534,209.526204 C1393.98648,207.277804 1385.63985,204.713262 1377.46518,201.832499 C1369.29052,198.951737 1362.01948,195.333273 1355.65185,190.976998 C1349.28422,186.620723 1344.16438,181.245722 1340.29217,174.851835 C1336.41996,168.457948 1334.48389,160.694058 1334.48389,151.559934 C1334.48389,143.409484 1336.54903,135.575333 1340.67939,128.057245 C1344.80975,120.539158 1350.83309,113.934582 1358.7496,108.24332 C1366.66612,102.552058 1376.38952,98.0201947 1387.92009,94.6475948 C1399.45067,91.2749949 1412.61598,89.5887203 1427.41642,89.5887203 C1444.62623,89.5887203 1460.07181,91.8019557 1473.75361,96.2284931 C1487.43542,100.65503 1499.26699,106.732645 1509.24868,114.46152 L1498.92284,128.162639 Z" id="lewis"></path>
                    <path d="M0.00322415056,375.420518 L0.00322415056,114.067547 L26.3341083,114.067547 C31.3249545,114.067547 34.7668657,115.013534 36.6599452,116.905536 C38.5530248,118.797538 39.8437415,122.065492 40.5321341,126.709497 L43.6298852,167.473337 C52.5789886,149.241317 63.6361284,135.008516 76.8016363,124.774505 C89.9671442,114.540494 105.412721,109.423565 123.13883,109.423565 C130.366952,109.423565 136.906583,110.240554 142.75792,111.874556 C148.609257,113.508557 154.030267,115.787526 159.021113,118.711529 L153.083757,153.025394 C151.87907,157.325398 149.211588,159.475368 145.081233,159.475368 C142.671859,159.475368 138.971804,158.65838 133.980958,157.024378 C128.990112,155.390376 122.020242,154.573388 113.071139,154.573388 C97.0660112,154.573388 83.6855814,159.217323 72.9294475,168.505333 C62.1733135,177.793343 53.1813205,191.295155 45.9531985,209.011173 L45.9531985,375.420518 L0.00322415056,375.420518 Z M259.181731,124.067547 L259.181731,404.770442 C259.181731,415.262453 257.804967,425.023317 255.051396,434.053327 C252.297826,443.083337 247.952413,450.952227 242.015027,457.660234 C236.077641,464.368241 228.419389,469.657167 219.04004,473.527172 C209.660691,477.397176 198.431456,479.332149 185.351997,479.332149 C179.672758,479.332149 174.509891,478.902155 169.863242,478.042154 C165.216592,477.182153 160.570012,475.892171 155.923362,474.172169 L157.988529,449.404267 C158.332725,447.168264 159.107155,445.749284 160.311842,445.147283 C161.516529,444.545283 163.409581,444.244287 165.991053,444.244287 C167.367838,444.244287 168.83065,444.287286 170.379533,444.373286 C171.928417,444.459286 173.821468,444.502286 176.058744,444.502286 C189.482399,444.502286 199.033703,441.36333 204.712941,435.085323 C210.39218,428.807316 213.231757,418.702457 213.231757,404.770442 L213.231757,124.067547 L259.181731,124.067547 Z M269.507568,42.02387 C269.507568,46.4958748 268.604066,50.6668166 266.797036,54.5368208 C264.990005,58.4068249 262.580667,61.8467769 259.56895,64.8567801 C256.557232,67.8667833 253.072297,70.2317504 249.11404,71.9517522 C245.155783,73.671754 240.939442,74.5317421 236.46489,74.5317421 C231.990338,74.5317421 227.817021,73.671754 223.944813,71.9517522 C220.072604,70.2317504 216.630693,67.8667833 213.618976,64.8567801 C210.607258,61.8467769 208.240944,58.4068249 206.519963,54.5368208 C204.798981,50.6668166 203.938503,46.4958748 203.938503,42.02387 C203.938503,37.5518653 204.798981,33.2949246 206.519963,29.2529203 C208.240944,25.210916 210.607258,21.6849651 213.618976,18.6749619 C216.630693,15.6649587 220.072604,13.2999917 223.944813,11.5799898 C227.817021,9.85998801 231.990338,9 236.46489,9 C240.939442,9 245.155783,9.85998801 249.11404,11.5799898 C253.072297,13.2999917 256.557232,15.6649587 259.56895,18.6749619 C262.580667,21.6849651 264.990005,25.210916 266.797036,29.2529203 C268.604066,33.2949246 269.507568,37.5518653 269.507568,42.02387 L269.507568,42.02387 Z" id="rj"></path>
                </g>
                <g id="rj-+-lewis(lato)-+-design&amp;development">
                    <g id="rj-+-lewis(lato)" transform="translate(0.676776, 0.330461)" stroke="#145990" stroke-width="5" fill="#2187D8">
                        <path d="M471.373436,0.572411741 L471.373436,311.060837 L425.423461,311.060837 L425.423461,0.572411741 L471.373436,0.572411741 Z M655.947771,94.1615909 C671.608702,94.1615909 686.064729,96.304565 699.316286,100.590577 C712.567843,104.87659 724.012198,111.059597 733.649694,119.139784 C743.28719,127.219971 750.81637,137.197096 756.237462,149.071458 C761.658553,160.945821 764.369058,174.471149 764.369058,189.647848 C764.369058,195.549898 763.594628,199.484539 762.045745,201.451889 C760.496862,203.419239 757.571237,204.402899 753.268784,204.402899 L579.278432,204.402899 C579.622628,217.893298 581.85987,229.62696 585.990226,239.604234 C590.120581,249.581509 595.799734,257.90749 603.027856,264.582427 C610.255978,271.257365 618.860756,276.245927 628.842449,279.548265 C638.824141,282.850602 650.010353,284.501746 662.401419,284.501746 C673.931994,284.501746 683.870513,283.412694 692.217273,281.234556 C700.564033,279.056419 707.749023,276.70266 713.772458,274.17321 C719.795892,271.64376 724.829688,269.290002 728.873994,267.111865 C732.9183,264.933727 736.403235,263.844675 739.328904,263.844675 C743.115063,263.844675 746.040688,265.039119 748.105865,267.428044 L761.013161,281.129163 C755.333923,286.750163 748.536148,291.633333 740.619634,295.77882 C732.703119,299.924308 724.227413,303.331988 715.19226,306.001963 C706.157108,308.671938 696.820923,310.674389 687.183427,312.009376 C677.545931,313.344364 667.994628,314.011847 658.52923,314.011847 C640.458925,314.011847 623.808679,311.517566 608.577994,306.528929 C593.347308,301.540292 580.181998,294.233101 569.081668,284.607139 C557.981337,274.981177 549.333535,263.071862 543.138002,248.878838 C536.942469,234.685813 533.844749,218.385158 533.844749,199.976384 C533.844749,185.080734 536.641302,171.168968 542.234492,158.240669 C547.827681,145.312369 555.873149,134.105669 566.371135,124.620231 C576.869122,115.134794 589.690241,107.687081 604.834878,102.276869 C619.979514,96.8666565 637.016975,94.1615909 655.947771,94.1615909 L655.947771,94.1615909 Z M656.980354,121.774615 C634.779694,121.774615 617.311995,127.009092 604.576732,137.478204 C591.841469,147.947316 583.925074,162.456305 580.827307,181.005604 L723.065711,181.005604 C723.065711,172.293054 721.602898,164.31838 718.67723,157.081343 C715.751562,149.844306 711.449173,143.591037 705.769934,138.32135 C700.090695,133.051663 693.163849,128.976499 684.989187,126.095737 C676.814525,123.214974 667.478341,121.774615 656.980354,121.774615 L656.980354,121.774615 Z M788.892921,97.534174 L825.03335,97.534174 C828.81951,97.534174 831.91723,98.3070499 834.326604,99.8528248 C836.735978,101.3986 838.370885,103.225397 839.231376,105.333272 L889.311685,242.766031 C890.68847,247.824931 891.979187,252.708101 893.183874,257.415688 C894.388561,262.123276 895.421134,266.865923 896.281625,271.643773 C897.65841,266.865923 899.20727,262.123276 900.928252,257.415688 C902.649233,252.708101 904.456237,247.824931 906.349316,242.766031 L961.592544,104.490126 C962.453034,102.382252 963.958871,100.625715 966.110097,99.2204655 C968.261324,97.8152155 970.971829,97.1126011 974.241694,97.1126011 L994.11893,97.1126011 C997.560893,97.1126011 1000.40047,97.8152155 1002.63775,99.2204655 C1004.87502,100.625715 1006.42388,102.382252 1007.28437,104.490126 L1061.23687,242.766031 C1063.12995,247.684406 1064.80788,252.532445 1066.27072,257.310295 C1067.73355,262.088145 1069.15334,266.795662 1070.53012,271.432987 C1071.39061,266.795662 1072.50924,261.947622 1073.88602,256.888722 C1075.26281,251.829822 1076.72562,247.122306 1078.2745,242.766031 L1129.38739,105.333272 C1130.24788,103.084872 1131.88279,101.222944 1134.29217,99.7474316 C1136.70154,98.2719191 1139.54112,97.534174 1142.81098,97.534174 L1177.40254,97.534174 L1092.73067,311.060837 L1056.3321,311.060837 C1051.85755,311.060837 1048.75983,308.671948 1047.03884,303.894098 L989.214158,159.083814 C987.837372,155.851739 986.718751,152.584582 985.858261,149.282245 C984.99777,145.979908 984.137292,142.71275 983.276801,139.480675 C982.416311,142.71275 981.555833,146.015038 980.695342,149.387638 C979.834851,152.760238 978.71623,156.062526 977.339445,159.294601 L918.740321,303.894098 C916.847241,308.671948 913.319282,311.060837 908.156338,311.060837 L873.564784,311.060837 L788.892921,97.534174 Z M1269.56063,97.534174 L1269.56063,311.060837 L1223.61066,311.060837 L1223.61066,97.534174 L1269.56063,97.534174 Z M1279.88647,30.5040862 C1279.88647,34.1577361 1278.98297,37.5654161 1277.17593,40.7272285 C1275.3689,43.8890409 1272.95957,46.6994987 1269.94785,49.1586861 C1266.93613,51.6178735 1263.4512,53.5500632 1259.49294,54.9553132 C1255.53468,56.3605631 1251.31834,57.0631776 1246.84379,57.0631776 C1242.36924,57.0631776 1238.19592,56.3605631 1234.32371,54.9553132 C1230.4515,53.5500632 1227.00959,51.6178735 1223.99787,49.1586861 C1220.98616,46.6994987 1218.61984,43.8890409 1216.89886,40.7272285 C1215.17788,37.5654161 1214.3174,34.1577361 1214.3174,30.5040862 C1214.3174,26.8504363 1215.17788,23.3724948 1216.89886,20.0701574 C1218.61984,16.76782 1220.98616,13.8871008 1223.99787,11.4279134 C1227.00959,8.96872596 1230.4515,7.03653625 1234.32371,5.63128629 C1238.19592,4.22603634 1242.36924,3.5234219 1246.84379,3.5234219 C1251.31834,3.5234219 1255.53468,4.22603634 1259.49294,5.63128629 C1263.4512,7.03653625 1266.93613,8.96872596 1269.94785,11.4279134 C1272.95957,13.8871008 1275.3689,16.76782 1277.17593,20.0701574 C1278.98297,23.3724948 1279.88647,26.8504363 1279.88647,30.5040862 L1279.88647,30.5040862 Z M1500.34309,132.735509 C1498.27791,135.827059 1495.09414,137.372811 1490.79169,137.372811 C1488.21021,137.372811 1485.28459,136.599935 1482.01472,135.05416 C1478.74486,133.508385 1474.74364,131.78698 1470.01094,129.889892 C1465.27824,127.992805 1459.64211,126.236269 1453.10238,124.620231 C1446.56265,123.004194 1438.81835,122.196187 1429.86925,122.196187 C1422.12483,122.196187 1415.15496,123.004194 1408.95943,124.620231 C1402.7639,126.236269 1397.47196,128.449504 1393.08345,131.260004 C1388.69495,134.070504 1385.33909,137.337661 1383.01576,141.061574 C1380.69244,144.785486 1379.53079,148.825519 1379.53079,153.181794 C1379.53079,158.662269 1381.46687,163.229263 1385.33908,166.882913 C1389.21128,170.536563 1394.33113,173.698327 1400.69876,176.368302 C1407.06639,179.038277 1414.2944,181.392036 1422.38302,183.429648 C1430.47163,185.467261 1438.77524,187.645365 1447.2941,189.964028 C1455.81296,192.28269 1464.11657,194.847233 1472.20518,197.657733 C1480.29379,200.468233 1487.52181,203.981305 1493.88944,208.197055 C1500.25707,212.412805 1505.37691,217.577021 1509.24912,223.689858 C1513.12133,229.802695 1515.0574,237.145016 1515.0574,245.717041 C1515.0574,255.553791 1512.90621,264.652648 1508.60376,273.013885 C1504.3013,281.375122 1497.93377,288.612051 1489.50096,294.724888 C1481.06815,300.837726 1470.74241,305.650634 1458.52345,309.163759 C1446.30448,312.676884 1432.19264,314.43342 1416.18751,314.43342 C1397.94511,314.43342 1381.42394,312.009401 1366.6235,307.161288 C1351.82306,302.313176 1339.26008,296.095038 1328.93419,288.506688 L1339.77632,274.17321 C1341.15311,272.346385 1342.78801,270.941157 1344.68109,269.957482 C1346.57417,268.973807 1349.06956,268.481977 1352.16733,268.481977 C1355.26509,268.481977 1358.53491,269.465637 1361.97687,271.432987 C1365.41883,273.400337 1369.59215,275.578441 1374.49695,277.967366 C1379.40174,280.356291 1385.33904,282.534396 1392.30902,284.501746 C1399.27899,286.469096 1408.01284,287.452756 1418.51083,287.452756 C1427.45993,287.452756 1435.29028,286.504227 1442.00211,284.607139 C1448.71393,282.710052 1454.30704,280.145509 1458.78159,276.913434 C1463.25614,273.681359 1466.56898,269.957503 1468.72021,265.741753 C1470.87144,261.526003 1471.94703,257.029271 1471.94703,252.251421 C1471.94703,246.349371 1470.01096,241.4662 1466.13875,237.601763 C1462.26654,233.737326 1457.1467,230.435038 1450.77907,227.6948 C1444.41144,224.954563 1437.1404,222.565674 1428.96574,220.528062 C1420.79108,218.490449 1412.44444,216.347475 1403.92558,214.099075 C1395.40673,211.850675 1387.06009,209.286132 1378.88543,206.40537 C1370.71077,203.524608 1363.43973,199.906143 1357.0721,195.549868 C1350.70447,191.193594 1345.58462,185.818593 1341.71242,179.424706 C1337.84021,173.030818 1335.90413,165.266929 1335.90413,156.132804 C1335.90413,147.982354 1337.96928,140.148203 1342.09963,132.630116 C1346.22999,125.112029 1352.25333,118.507453 1360.16985,112.816191 C1368.08636,107.124929 1377.80976,102.593065 1389.34034,99.2204655 C1400.87091,95.8478656 1414.03622,94.1615909 1428.83666,94.1615909 C1446.04648,94.1615909 1461.49206,96.3748264 1475.17386,100.801364 C1488.85566,105.227901 1500.68723,111.305516 1510.66892,119.034391 L1500.34309,132.735509 Z" id="lewis"></path>
                        <path d="M0.0587037376,380.604916 L0.0587037376,119.251945 L26.3895879,119.251945 C31.380434,119.251945 34.8223453,120.197931 36.7154248,122.089933 C38.6085044,123.981935 39.8992211,127.24989 40.5876137,131.893895 L43.6853648,172.657734 C52.6344682,154.425715 63.691608,140.192913 76.8571159,129.958902 C90.0226238,119.724892 105.4682,114.607963 123.194309,114.607963 C130.422431,114.607963 136.962062,115.424951 142.813399,117.058953 C148.664736,118.692955 154.085746,120.971923 159.076592,123.895926 L153.139236,158.209791 C151.934549,162.509796 149.267068,164.659766 145.136713,164.659766 C142.727339,164.659766 139.027284,163.842777 134.036438,162.208776 C129.045592,160.574774 122.075722,159.757785 113.126618,159.757785 C97.1214908,159.757785 83.741061,164.40172 72.984927,173.68973 C62.2287931,182.97774 53.2368001,196.479552 46.0086781,214.195571 L46.0086781,380.604916 L0.0587037376,380.604916 Z M259.237211,119.251945 L259.237211,399.95484 C259.237211,410.446851 257.860446,420.207715 255.106876,429.237724 C252.353306,438.267734 248.007893,446.136624 242.070507,452.844632 C236.133121,459.552639 228.474868,464.841565 219.09552,468.711569 C209.716171,472.581573 198.486935,474.516546 185.407477,474.516546 C179.728238,474.516546 174.565371,474.086552 169.918721,473.226551 C165.272071,472.36655 160.625491,471.076568 155.978841,469.356567 L158.044009,444.588664 C158.388205,442.352662 159.162635,440.933681 160.367322,440.331681 C161.572009,439.72968 163.46506,439.428684 166.046532,439.428684 C167.423317,439.428684 168.88613,439.471684 170.435013,439.557684 C171.983896,439.643684 173.876948,439.686683 176.114223,439.686683 C189.537878,439.686683 199.089182,436.547727 204.768421,430.26972 C210.44766,423.991714 213.287236,413.886855 213.287236,399.95484 L213.287236,119.251945 L259.237211,119.251945 Z M269.563048,37.2082675 C269.563048,41.6802723 268.659546,45.8512142 266.852515,49.7212183 C265.045485,53.5912224 262.636147,57.0311745 259.62443,60.0411777 C256.612712,63.0511809 253.127777,65.4161479 249.16952,67.1361497 C245.211262,68.8561516 240.994921,69.7161396 236.520369,69.7161396 C232.045818,69.7161396 227.8725,68.8561516 224.000292,67.1361497 C220.128084,65.4161479 216.686173,63.0511809 213.674455,60.0411777 C210.662738,57.0311745 208.296424,53.5912224 206.575442,49.7212183 C204.854461,45.8512142 203.993983,41.6802723 203.993983,37.2082675 C203.993983,32.7362628 204.854461,28.4793221 206.575442,24.4373178 C208.296424,20.3953135 210.662738,16.8693626 213.674455,13.8593594 C216.686173,10.8493562 220.128084,8.4843892 224.000292,6.76438737 C227.8725,5.04438554 232.045818,4.18439752 236.520369,4.18439752 C240.994921,4.18439752 245.211262,5.04438554 249.16952,6.76438737 C253.127777,8.4843892 256.612712,10.8493562 259.62443,13.8593594 C262.636147,16.8693626 265.045485,20.3953135 266.852515,24.4373178 C268.659546,28.4793221 269.563048,32.7362628 269.563048,37.2082675 L269.563048,37.2082675 Z" id="rj"></path>
                    </g>
                    <g id="digital-content-deve">
                        <use fill="black" fill-opacity="1" filter="url(#filter-2)" xlink:href="#path-1"></use>
                        <use fill="#FFFFFF" fill-rule="evenodd" xlink:href="#path-1"></use>
                    </g>
                </g>
            </g>
        </g>
    </g>
</svg>